<?xml version="1.0" encoding="utf-8" standalone="no"?>
<!DOCTYPE svg PUBLIC "-//W3C//DTD SVG 1.1//EN"
  "http://www.w3.org/Graphics/SVG/1.1/DTD/svg11.dtd">
<!-- Created with matplotlib (http://matplotlib.org/) -->
<svg height="576pt" version="1.1" viewBox="0 0 1440 576" width="1440pt" xmlns="http://www.w3.org/2000/svg" xmlns:xlink="http://www.w3.org/1999/xlink">
 <defs>
  <style type="text/css">
*{stroke-linecap:butt;stroke-linejoin:round;}
  </style>
 </defs>
 <g id="figure_1">
  <g id="patch_1">
   <path d="M 0 576 
L 1440 576 
L 1440 0 
L 0 0 
z
" style="fill:#ffffff;"/>
  </g>
  <g id="axes_1">
   <g id="patch_2">
    <path d="M 180 512.64 
L 1296 512.64 
L 1296 69.12 
L 180 69.12 
z
" style="fill:#ffffff;"/>
   </g>
   <g id="matplotlib.axis_1">
    <g id="xtick_1">
     <g id="line2d_1">
      <path clip-path="url(#p2bb382e6ec)" d="M 230.727273 512.64 
L 230.727273 69.12 
" style="fill:none;opacity:0.4;stroke:#b0b0b0;stroke-linecap:square;stroke-width:0.8;"/>
     </g>
     <g id="line2d_2">
      <defs>
       <path d="M 0 0 
L 0 3.5 
" id="mc945932ec8" style="stroke:#000000;stroke-width:0.8;"/>
      </defs>
      <g>
       <use style="stroke:#000000;stroke-width:0.8;" x="230.727273" xlink:href="#mc945932ec8" y="512.64"/>
      </g>
     </g>
     <g id="text_1">
      <!-- 10点0分 -->
      <defs>
       <path d="M 28.515625 69.53125 
L 28.515625 10.15625 
Q 28.515625 7.03125 30.46875 5.46875 
Q 32.421875 3.90625 35.9375 3.90625 
L 39.84375 3.90625 
L 39.84375 1.5625 
L 11.328125 1.5625 
L 11.328125 3.90625 
L 14.84375 3.90625 
Q 18.75 3.90625 20.5 5.46875 
Q 22.265625 7.03125 22.265625 10.15625 
L 22.265625 57.421875 
Q 22.265625 58.984375 21.28125 59.953125 
Q 20.3125 60.9375 18.359375 60.9375 
L 11.328125 60.9375 
L 11.328125 63.28125 
L 14.84375 63.28125 
Q 19.53125 63.28125 22.453125 64.84375 
Q 25.390625 66.40625 26.953125 69.53125 
z
" id="LiSu-31"/>
       <path d="M 25 66.015625 
Q 19.53125 66.015625 15.8125 57.609375 
Q 12.109375 49.21875 12.109375 35.15625 
Q 12.109375 20.3125 15.8125 12.109375 
Q 19.53125 3.90625 25 3.90625 
Q 30.859375 3.90625 34.171875 12.109375 
Q 37.5 20.3125 37.5 35.15625 
Q 37.5 49.21875 34.375 57.609375 
Q 31.25 66.015625 25 66.015625 
z
M 25 0.78125 
Q 16.40625 0.78125 10.546875 9.765625 
Q 4.6875 18.75 4.6875 35.15625 
Q 4.6875 50.390625 10.34375 59.765625 
Q 16.015625 69.140625 25 69.140625 
Q 33.59375 69.140625 39.25 60.15625 
Q 44.921875 51.171875 44.921875 35.15625 
Q 44.921875 19.140625 39.25 9.953125 
Q 33.59375 0.78125 25 0.78125 
z
" id="LiSu-30"/>
       <path d="M 41.40625 59.375 
Q 40.625 64.0625 46.875 63.28125 
Q 52.34375 62.5 54.6875 59.375 
L 54.6875 55.46875 
Q 68.75 55.46875 75.78125 54.6875 
Q 79.6875 53.90625 80.46875 52.34375 
Q 81.25 49.21875 75.78125 49.21875 
L 54.6875 49.21875 
L 54.6875 43.75 
Q 64.84375 42.1875 73.4375 44.53125 
Q 80.46875 43.75 78.125 37.5 
Q 75.78125 32.03125 75 25 
Q 74.21875 23.4375 71.09375 23.4375 
Q 64.0625 24.21875 57.03125 25 
L 41.40625 25 
Q 33.59375 25 26.5625 22.65625 
Q 21.875 25 21.875 28.90625 
Q 21.875 36.71875 21.09375 41.40625 
Q 21.09375 46.875 26.5625 46.09375 
Q 33.59375 43.75 42.1875 43.75 
Q 42.96875 54.6875 41.40625 59.375 
z
M 67.1875 37.5 
L 32.8125 37.5 
Q 30.46875 36.71875 30.46875 33.59375 
Q 30.46875 31.25 33.59375 30.46875 
L 65.625 30.46875 
Q 67.96875 30.46875 68.75 32.8125 
Q 69.53125 36.71875 67.1875 37.5 
z
M 21.09375 21.09375 
Q 23.4375 23.4375 26.5625 21.09375 
Q 28.125 18.75 27.34375 17.1875 
Q 27.34375 15.625 21.875 11.71875 
Q 9.375 4.6875 4.6875 5.46875 
Q 1.5625 6.25 3.90625 8.59375 
Q 17.1875 14.84375 21.09375 21.09375 
z
M 41.40625 15.625 
Q 35.9375 5.46875 31.25 4.6875 
Q 30.46875 5.46875 30.46875 6.25 
Q 33.59375 12.5 35.15625 17.96875 
Q 37.5 21.09375 39.0625 20.3125 
Q 42.1875 19.53125 41.40625 15.625 
z
M 57.8125 19.53125 
Q 60.15625 14.84375 63.28125 8.59375 
Q 63.28125 4.6875 60.9375 5.46875 
Q 53.125 10.15625 51.5625 17.1875 
Q 51.5625 18.75 52.34375 20.3125 
Q 54.6875 22.65625 57.8125 19.53125 
z
M 74.21875 20.3125 
Q 79.6875 17.96875 85.15625 14.84375 
Q 96.875 9.375 96.875 8.59375 
Q 98.4375 7.03125 89.0625 1.5625 
Q 85.9375 1.5625 80.46875 5.46875 
Q 75.78125 10.15625 71.875 13.28125 
Q 66.40625 18.75 69.53125 21.09375 
Q 71.875 21.875 74.21875 20.3125 
z
" id="LiSu-70b9"/>
       <path d="M 45.3125 40.625 
Q 56.25 38.28125 65.625 37.5 
Q 75 38.28125 72.65625 28.90625 
Q 69.53125 13.28125 61.71875 6.25 
Q 54.6875 1.5625 49.21875 3.90625 
Q 38.28125 10.9375 42.1875 12.5 
Q 53.125 8.59375 60.15625 15.625 
Q 62.5 18.75 65.625 26.5625 
Q 67.96875 31.25 58.59375 33.59375 
Q 54.6875 34.375 49.21875 34.375 
Q 55.46875 32.03125 52.34375 28.125 
Q 41.40625 13.28125 18.75 5.46875 
Q 12.5 3.125 7.8125 5.46875 
Q 1.5625 10.9375 5.46875 12.5 
Q 19.53125 10.15625 35.9375 22.65625 
Q 44.53125 29.6875 45.3125 35.15625 
Q 36.71875 35.15625 31.25 33.59375 
Q 25.78125 32.8125 27.34375 37.5 
Q 32.03125 42.96875 36.71875 42.96875 
Q 39.84375 41.40625 45.3125 40.625 
z
M 35.15625 51.5625 
Q 23.4375 42.96875 11.71875 40.625 
Q 4.6875 38.28125 2.34375 47.65625 
Q 2.34375 50.78125 7.03125 50 
Q 23.4375 50 37.5 59.375 
Q 39.84375 60.15625 39.84375 57.8125 
Q 39.0625 54.6875 35.15625 51.5625 
z
M 51.5625 56.25 
Q 49.21875 57.8125 50.78125 60.15625 
Q 53.90625 62.5 56.25 60.9375 
Q 78.90625 46.875 95.3125 45.3125 
Q 86.71875 32.8125 78.125 39.0625 
Q 64.0625 50.78125 51.5625 56.25 
z
" id="LiSu-5206"/>
      </defs>
      <g transform="translate(214.242846 567.325514)rotate(-45)scale(0.16 -0.16)">
       <use xlink:href="#LiSu-31"/>
       <use x="50" xlink:href="#LiSu-30"/>
       <use x="100" xlink:href="#LiSu-70b9"/>
       <use x="200" xlink:href="#LiSu-30"/>
       <use x="250" xlink:href="#LiSu-5206"/>
      </g>
     </g>
    </g>
    <g id="xtick_2">
     <g id="line2d_3">
      <path clip-path="url(#p2bb382e6ec)" d="M 315.983193 512.64 
L 315.983193 69.12 
" style="fill:none;opacity:0.4;stroke:#b0b0b0;stroke-linecap:square;stroke-width:0.8;"/>
     </g>
     <g id="line2d_4">
      <g>
       <use style="stroke:#000000;stroke-width:0.8;" x="315.983193" xlink:href="#mc945932ec8" y="512.64"/>
      </g>
     </g>
     <g id="text_2">
      <!-- 10点10分 -->
      <g transform="translate(296.670339 572.982368)rotate(-45)scale(0.16 -0.16)">
       <use xlink:href="#LiSu-31"/>
       <use x="50" xlink:href="#LiSu-30"/>
       <use x="100" xlink:href="#LiSu-70b9"/>
       <use x="200" xlink:href="#LiSu-31"/>
       <use x="250" xlink:href="#LiSu-30"/>
       <use x="300" xlink:href="#LiSu-5206"/>
      </g>
     </g>
    </g>
    <g id="xtick_3">
     <g id="line2d_5">
      <path clip-path="url(#p2bb382e6ec)" d="M 401.239114 512.64 
L 401.239114 69.12 
" style="fill:none;opacity:0.4;stroke:#b0b0b0;stroke-linecap:square;stroke-width:0.8;"/>
     </g>
     <g id="line2d_6">
      <g>
       <use style="stroke:#000000;stroke-width:0.8;" x="401.239114" xlink:href="#mc945932ec8" y="512.64"/>
      </g>
     </g>
     <g id="text_3">
      <!-- 10点20分 -->
      <defs>
       <path d="M 36.328125 51.953125 
Q 36.328125 58.984375 33.203125 62.6875 
Q 30.078125 66.40625 23.828125 66.40625 
Q 19.140625 66.40625 15.8125 63.859375 
Q 12.5 61.328125 12.5 57.421875 
Q 12.5 55.078125 13.859375 53.515625 
Q 15.234375 51.953125 15.234375 50.390625 
Q 15.234375 48.4375 14.25 47.453125 
Q 13.28125 46.484375 11.328125 46.484375 
Q 8.984375 46.484375 7.609375 47.84375 
Q 6.25 49.21875 6.25 52.34375 
Q 6.25 60.546875 12.109375 64.84375 
Q 17.96875 69.140625 24.609375 69.140625 
Q 33.984375 69.140625 38.46875 64.453125 
Q 42.96875 59.765625 42.96875 52.734375 
Q 42.96875 48.046875 40.8125 43.359375 
Q 38.671875 38.671875 33.984375 34.375 
Q 22.65625 23.4375 16.59375 16.59375 
Q 10.546875 9.765625 9.375 7.421875 
L 32.421875 7.421875 
Q 35.9375 7.421875 38.28125 10.15625 
Q 40.625 12.890625 41.40625 18.359375 
L 43.75 18.359375 
L 41.40625 1.5625 
L 5.078125 1.5625 
L 5.078125 6.640625 
Q 7.03125 10.15625 11.515625 15.625 
Q 16.015625 21.09375 23.4375 28.515625 
Q 30.078125 35.15625 33.203125 41.015625 
Q 36.328125 46.875 36.328125 51.953125 
z
" id="LiSu-32"/>
      </defs>
      <g transform="translate(381.92626 572.982368)rotate(-45)scale(0.16 -0.16)">
       <use xlink:href="#LiSu-31"/>
       <use x="50" xlink:href="#LiSu-30"/>
       <use x="100" xlink:href="#LiSu-70b9"/>
       <use x="200" xlink:href="#LiSu-32"/>
       <use x="250" xlink:href="#LiSu-30"/>
       <use x="300" xlink:href="#LiSu-5206"/>
      </g>
     </g>
    </g>
    <g id="xtick_4">
     <g id="line2d_7">
      <path clip-path="url(#p2bb382e6ec)" d="M 486.495034 512.64 
L 486.495034 69.12 
" style="fill:none;opacity:0.4;stroke:#b0b0b0;stroke-linecap:square;stroke-width:0.8;"/>
     </g>
     <g id="line2d_8">
      <g>
       <use style="stroke:#000000;stroke-width:0.8;" x="486.495034" xlink:href="#mc945932ec8" y="512.64"/>
      </g>
     </g>
     <g id="text_4">
      <!-- 10点30分 -->
      <defs>
       <path d="M 43.75 19.53125 
Q 43.75 12.109375 38.28125 6.4375 
Q 32.8125 0.78125 23.046875 0.78125 
Q 16.015625 0.78125 10.9375 4.6875 
Q 5.859375 8.59375 5.859375 13.671875 
Q 5.859375 16.015625 7.421875 17.765625 
Q 8.984375 19.53125 10.546875 19.53125 
Q 12.890625 19.53125 13.859375 17.765625 
Q 14.84375 16.015625 14.84375 14.84375 
Q 14.84375 12.890625 14.0625 11.515625 
Q 13.28125 10.15625 13.28125 8.984375 
Q 13.28125 6.640625 16.203125 5.078125 
Q 19.140625 3.515625 22.65625 3.515625 
Q 29.6875 3.515625 33.203125 7.609375 
Q 36.71875 11.71875 36.71875 20.3125 
Q 36.71875 27.34375 33 31.640625 
Q 29.296875 35.9375 19.140625 35.9375 
L 19.140625 38.671875 
Q 26.953125 38.671875 30.65625 42.375 
Q 34.375 46.09375 34.375 52.734375 
Q 34.375 58.203125 31.4375 62.296875 
Q 28.515625 66.40625 22.265625 66.40625 
Q 19.53125 66.40625 16.40625 65.03125 
Q 13.28125 63.671875 13.28125 60.546875 
Q 13.28125 57.421875 14.0625 56.640625 
Q 14.84375 55.859375 14.84375 54.6875 
Q 14.84375 52.734375 14.0625 51.5625 
Q 13.28125 50.390625 11.328125 50.390625 
Q 9.765625 50.390625 8.390625 51.5625 
Q 7.03125 52.734375 7.03125 55.859375 
Q 7.03125 61.71875 12.109375 65.421875 
Q 17.1875 69.140625 23.828125 69.140625 
Q 31.640625 69.140625 36.328125 64.25 
Q 41.015625 59.375 41.015625 53.90625 
Q 41.015625 48.046875 38.078125 43.9375 
Q 35.15625 39.84375 28.90625 37.890625 
Q 37.5 34.765625 40.625 29.6875 
Q 43.75 24.609375 43.75 19.53125 
z
" id="LiSu-33"/>
      </defs>
      <g transform="translate(467.18218 572.982368)rotate(-45)scale(0.16 -0.16)">
       <use xlink:href="#LiSu-31"/>
       <use x="50" xlink:href="#LiSu-30"/>
       <use x="100" xlink:href="#LiSu-70b9"/>
       <use x="200" xlink:href="#LiSu-33"/>
       <use x="250" xlink:href="#LiSu-30"/>
       <use x="300" xlink:href="#LiSu-5206"/>
      </g>
     </g>
    </g>
    <g id="xtick_5">
     <g id="line2d_9">
      <path clip-path="url(#p2bb382e6ec)" d="M 571.750955 512.64 
L 571.750955 69.12 
" style="fill:none;opacity:0.4;stroke:#b0b0b0;stroke-linecap:square;stroke-width:0.8;"/>
     </g>
     <g id="line2d_10">
      <g>
       <use style="stroke:#000000;stroke-width:0.8;" x="571.750955" xlink:href="#mc945932ec8" y="512.64"/>
      </g>
     </g>
     <g id="text_5">
      <!-- 10点40分 -->
      <defs>
       <path d="M 35.9375 8.984375 
Q 35.9375 6.25 37.5 5.078125 
Q 39.0625 3.90625 41.796875 3.90625 
L 45.3125 3.90625 
L 45.3125 1.5625 
L 19.53125 1.5625 
L 19.53125 3.90625 
L 23.828125 3.90625 
Q 26.953125 3.90625 28.3125 5.078125 
Q 29.6875 6.25 29.6875 8.984375 
L 29.6875 21.875 
L 3.515625 21.875 
L 3.515625 23.828125 
L 32.03125 69.140625 
L 35.9375 69.140625 
L 35.9375 24.21875 
L 46.484375 24.21875 
L 46.484375 21.875 
L 35.9375 21.875 
z
M 29.296875 59.375 
L 7.03125 24.21875 
L 29.6875 24.21875 
L 29.6875 59.375 
z
" id="LiSu-34"/>
      </defs>
      <g transform="translate(552.438101 572.982368)rotate(-45)scale(0.16 -0.16)">
       <use xlink:href="#LiSu-31"/>
       <use x="50" xlink:href="#LiSu-30"/>
       <use x="100" xlink:href="#LiSu-70b9"/>
       <use x="200" xlink:href="#LiSu-34"/>
       <use x="250" xlink:href="#LiSu-30"/>
       <use x="300" xlink:href="#LiSu-5206"/>
      </g>
     </g>
    </g>
    <g id="xtick_6">
     <g id="line2d_11">
      <path clip-path="url(#p2bb382e6ec)" d="M 657.006875 512.64 
L 657.006875 69.12 
" style="fill:none;opacity:0.4;stroke:#b0b0b0;stroke-linecap:square;stroke-width:0.8;"/>
     </g>
     <g id="line2d_12">
      <g>
       <use style="stroke:#000000;stroke-width:0.8;" x="657.006875" xlink:href="#mc945932ec8" y="512.64"/>
      </g>
     </g>
     <g id="text_6">
      <!-- 10点50分 -->
      <defs>
       <path d="M 26.953125 44.53125 
Q 34.375 44.53125 39.0625 38.859375 
Q 43.75 33.203125 43.75 23.828125 
Q 43.75 13.28125 38.859375 7.03125 
Q 33.984375 0.78125 23.828125 0.78125 
Q 16.796875 0.78125 11.328125 4.875 
Q 5.859375 8.984375 5.859375 14.84375 
Q 5.859375 17.1875 7.21875 18.9375 
Q 8.59375 20.703125 10.9375 20.703125 
Q 13.28125 20.703125 14.0625 19.140625 
Q 14.84375 17.578125 14.84375 16.40625 
Q 14.84375 14.0625 13.671875 12.6875 
Q 12.5 11.328125 12.5 9.765625 
Q 12.5 6.640625 16.203125 5.078125 
Q 19.921875 3.515625 24.21875 3.515625 
Q 30.46875 3.515625 33.78125 8.59375 
Q 37.109375 13.671875 37.109375 23.046875 
Q 37.109375 30.859375 34.171875 35.734375 
Q 31.25 40.625 25.390625 40.625 
Q 21.09375 40.625 17.96875 39.0625 
Q 14.84375 37.5 12.109375 32.421875 
L 8.59375 32.8125 
L 10.546875 68.359375 
L 42.578125 68.359375 
L 41.40625 62.5 
L 13.28125 62.5 
L 11.71875 36.71875 
Q 15.625 42.1875 19.328125 43.359375 
Q 23.046875 44.53125 26.953125 44.53125 
z
" id="LiSu-35"/>
      </defs>
      <g transform="translate(637.694022 572.982368)rotate(-45)scale(0.16 -0.16)">
       <use xlink:href="#LiSu-31"/>
       <use x="50" xlink:href="#LiSu-30"/>
       <use x="100" xlink:href="#LiSu-70b9"/>
       <use x="200" xlink:href="#LiSu-35"/>
       <use x="250" xlink:href="#LiSu-30"/>
       <use x="300" xlink:href="#LiSu-5206"/>
      </g>
     </g>
    </g>
    <g id="xtick_7">
     <g id="line2d_13">
      <path clip-path="url(#p2bb382e6ec)" d="M 742.262796 512.64 
L 742.262796 69.12 
" style="fill:none;opacity:0.4;stroke:#b0b0b0;stroke-linecap:square;stroke-width:0.8;"/>
     </g>
     <g id="line2d_14">
      <g>
       <use style="stroke:#000000;stroke-width:0.8;" x="742.262796" xlink:href="#mc945932ec8" y="512.64"/>
      </g>
     </g>
     <g id="text_7">
      <!-- 11点0分 -->
      <g transform="translate(725.778369 567.325514)rotate(-45)scale(0.16 -0.16)">
       <use xlink:href="#LiSu-31"/>
       <use x="50" xlink:href="#LiSu-31"/>
       <use x="100" xlink:href="#LiSu-70b9"/>
       <use x="200" xlink:href="#LiSu-30"/>
       <use x="250" xlink:href="#LiSu-5206"/>
      </g>
     </g>
    </g>
    <g id="xtick_8">
     <g id="line2d_15">
      <path clip-path="url(#p2bb382e6ec)" d="M 827.518717 512.64 
L 827.518717 69.12 
" style="fill:none;opacity:0.4;stroke:#b0b0b0;stroke-linecap:square;stroke-width:0.8;"/>
     </g>
     <g id="line2d_16">
      <g>
       <use style="stroke:#000000;stroke-width:0.8;" x="827.518717" xlink:href="#mc945932ec8" y="512.64"/>
      </g>
     </g>
     <g id="text_8">
      <!-- 11点10分 -->
      <g transform="translate(808.205863 572.982368)rotate(-45)scale(0.16 -0.16)">
       <use xlink:href="#LiSu-31"/>
       <use x="50" xlink:href="#LiSu-31"/>
       <use x="100" xlink:href="#LiSu-70b9"/>
       <use x="200" xlink:href="#LiSu-31"/>
       <use x="250" xlink:href="#LiSu-30"/>
       <use x="300" xlink:href="#LiSu-5206"/>
      </g>
     </g>
    </g>
    <g id="xtick_9">
     <g id="line2d_17">
      <path clip-path="url(#p2bb382e6ec)" d="M 912.774637 512.64 
L 912.774637 69.12 
" style="fill:none;opacity:0.4;stroke:#b0b0b0;stroke-linecap:square;stroke-width:0.8;"/>
     </g>
     <g id="line2d_18">
      <g>
       <use style="stroke:#000000;stroke-width:0.8;" x="912.774637" xlink:href="#mc945932ec8" y="512.64"/>
      </g>
     </g>
     <g id="text_9">
      <!-- 11点20分 -->
      <g transform="translate(893.461783 572.982368)rotate(-45)scale(0.16 -0.16)">
       <use xlink:href="#LiSu-31"/>
       <use x="50" xlink:href="#LiSu-31"/>
       <use x="100" xlink:href="#LiSu-70b9"/>
       <use x="200" xlink:href="#LiSu-32"/>
       <use x="250" xlink:href="#LiSu-30"/>
       <use x="300" xlink:href="#LiSu-5206"/>
      </g>
     </g>
    </g>
    <g id="xtick_10">
     <g id="line2d_19">
      <path clip-path="url(#p2bb382e6ec)" d="M 998.030558 512.64 
L 998.030558 69.12 
" style="fill:none;opacity:0.4;stroke:#b0b0b0;stroke-linecap:square;stroke-width:0.8;"/>
     </g>
     <g id="line2d_20">
      <g>
       <use style="stroke:#000000;stroke-width:0.8;" x="998.030558" xlink:href="#mc945932ec8" y="512.64"/>
      </g>
     </g>
     <g id="text_10">
      <!-- 11点30分 -->
      <g transform="translate(978.717704 572.982368)rotate(-45)scale(0.16 -0.16)">
       <use xlink:href="#LiSu-31"/>
       <use x="50" xlink:href="#LiSu-31"/>
       <use x="100" xlink:href="#LiSu-70b9"/>
       <use x="200" xlink:href="#LiSu-33"/>
       <use x="250" xlink:href="#LiSu-30"/>
       <use x="300" xlink:href="#LiSu-5206"/>
      </g>
     </g>
    </g>
    <g id="xtick_11">
     <g id="line2d_21">
      <path clip-path="url(#p2bb382e6ec)" d="M 1083.286478 512.64 
L 1083.286478 69.12 
" style="fill:none;opacity:0.4;stroke:#b0b0b0;stroke-linecap:square;stroke-width:0.8;"/>
     </g>
     <g id="line2d_22">
      <g>
       <use style="stroke:#000000;stroke-width:0.8;" x="1083.286478" xlink:href="#mc945932ec8" y="512.64"/>
      </g>
     </g>
     <g id="text_11">
      <!-- 11点40分 -->
      <g transform="translate(1063.973624 572.982368)rotate(-45)scale(0.16 -0.16)">
       <use xlink:href="#LiSu-31"/>
       <use x="50" xlink:href="#LiSu-31"/>
       <use x="100" xlink:href="#LiSu-70b9"/>
       <use x="200" xlink:href="#LiSu-34"/>
       <use x="250" xlink:href="#LiSu-30"/>
       <use x="300" xlink:href="#LiSu-5206"/>
      </g>
     </g>
    </g>
    <g id="xtick_12">
     <g id="line2d_23">
      <path clip-path="url(#p2bb382e6ec)" d="M 1168.542399 512.64 
L 1168.542399 69.12 
" style="fill:none;opacity:0.4;stroke:#b0b0b0;stroke-linecap:square;stroke-width:0.8;"/>
     </g>
     <g id="line2d_24">
      <g>
       <use style="stroke:#000000;stroke-width:0.8;" x="1168.542399" xlink:href="#mc945932ec8" y="512.64"/>
      </g>
     </g>
     <g id="text_12">
      <!-- 11点50分 -->
      <g transform="translate(1149.229545 572.982368)rotate(-45)scale(0.16 -0.16)">
       <use xlink:href="#LiSu-31"/>
       <use x="50" xlink:href="#LiSu-31"/>
       <use x="100" xlink:href="#LiSu-70b9"/>
       <use x="200" xlink:href="#LiSu-35"/>
       <use x="250" xlink:href="#LiSu-30"/>
       <use x="300" xlink:href="#LiSu-5206"/>
      </g>
     </g>
    </g>
    <g id="text_13">
     <!-- 时间 -->
     <defs>
      <path d="M 40.625 38.28125 
Q 35.9375 36.71875 38.28125 42.96875 
Q 40.625 46.875 43.75 47.65625 
Q 46.875 46.875 49.21875 46.875 
L 66.40625 46.875 
Q 66.40625 54.6875 65.625 57.8125 
Q 64.84375 61.71875 67.96875 62.5 
Q 72.65625 62.5 75 60.9375 
Q 78.125 60.15625 78.125 57.8125 
Q 76.5625 53.125 76.5625 46.875 
L 97.65625 46.875 
Q 96.09375 40.625 92.1875 37.5 
Q 88.28125 35.15625 84.375 37.5 
Q 80.46875 39.0625 76.5625 39.84375 
L 76.5625 25.78125 
Q 76.5625 20.3125 77.34375 15.625 
Q 77.34375 11.71875 74.21875 7.8125 
Q 69.53125 2.34375 62.5 2.34375 
Q 52.34375 1.5625 44.53125 9.375 
Q 42.1875 12.5 46.09375 11.71875 
Q 59.375 6.25 64.84375 12.5 
Q 67.1875 16.40625 66.40625 24.21875 
L 66.40625 40.625 
Q 47.65625 40.625 40.625 38.28125 
z
M 27.34375 53.90625 
Q 30.46875 56.25 33.59375 55.46875 
Q 38.28125 53.125 36.71875 50 
Q 34.375 37.5 35.15625 21.09375 
Q 35.9375 12.5 30.46875 14.0625 
Q 28.90625 14.84375 27.34375 15.625 
Q 22.65625 17.1875 17.96875 15.625 
Q 15.625 14.0625 12.5 13.28125 
Q 7.8125 12.5 7.8125 17.96875 
Q 10.15625 42.96875 7.03125 49.21875 
Q 5.46875 54.6875 10.9375 55.46875 
Q 11.71875 55.46875 12.5 55.46875 
Q 15.625 54.6875 17.96875 53.90625 
Q 23.4375 53.125 27.34375 53.90625 
z
M 49.21875 34.375 
Q 53.125 31.25 58.59375 27.34375 
Q 62.5 25 58.59375 24.21875 
Q 53.90625 23.4375 49.21875 25 
Q 43.75 26.5625 42.96875 31.25 
Q 43.75 36.71875 49.21875 34.375 
z
M 18.75 47.65625 
Q 16.40625 45.3125 16.40625 42.1875 
Q 16.40625 38.28125 18.75 38.28125 
Q 25.78125 37.5 27.34375 39.84375 
Q 28.90625 43.75 27.34375 46.875 
Q 23.4375 49.21875 18.75 47.65625 
z
M 16.40625 31.25 
Q 14.84375 24.21875 17.1875 21.875 
Q 24.21875 21.09375 26.5625 23.4375 
Q 28.125 31.25 25.78125 32.03125 
Q 20.3125 32.8125 16.40625 31.25 
z
" id="LiSu-65f6"/>
      <path d="M 57.8125 25 
Q 50.78125 25.78125 40.625 25 
Q 39.0625 21.875 40.625 17.96875 
Q 50 16.40625 59.375 17.96875 
Q 60.9375 23.4375 57.8125 25 
z
M 40.625 36.71875 
Q 38.28125 32.03125 40.625 30.46875 
Q 48.4375 28.90625 57.8125 30.46875 
Q 60.15625 33.59375 58.59375 36.71875 
Q 50 38.28125 40.625 36.71875 
z
M 33.59375 61.71875 
Q 35.15625 57.8125 39.84375 53.125 
Q 40.625 50.78125 37.5 50.78125 
Q 30.46875 52.34375 26.5625 57.03125 
Q 25.78125 59.375 28.125 61.71875 
Q 30.46875 64.0625 33.59375 61.71875 
z
M 23.4375 49.21875 
Q 25 45.3125 25 39.84375 
Q 25 32.8125 24.21875 24.21875 
Q 22.65625 12.5 16.40625 6.25 
Q 10.9375 1.5625 3.90625 7.03125 
Q 1.5625 10.15625 3.90625 11.71875 
Q 10.9375 14.0625 15.625 22.65625 
Q 17.1875 27.34375 17.96875 32.8125 
Q 18.75 39.84375 17.1875 45.3125 
Q 16.40625 49.21875 17.96875 51.5625 
Q 21.875 53.125 23.4375 49.21875 
z
M 70.3125 55.46875 
Q 77.34375 55.46875 79.6875 57.03125 
Q 86.71875 57.8125 85.9375 50.78125 
Q 82.8125 29.6875 86.71875 9.375 
Q 87.5 0.78125 79.6875 0.78125 
Q 75 1.5625 75.78125 13.28125 
Q 75.78125 30.46875 75.78125 46.875 
Q 76.5625 50.78125 70.3125 50.78125 
Q 54.6875 52.34375 48.4375 49.21875 
Q 44.53125 47.65625 44.53125 51.5625 
Q 46.09375 57.03125 50.78125 57.8125 
Q 57.8125 54.6875 70.3125 55.46875 
z
M 42.96875 41.40625 
Q 59.375 41.40625 62.5 42.96875 
Q 67.96875 42.96875 67.96875 35.9375 
Q 65.625 26.5625 67.1875 15.625 
Q 67.96875 10.9375 61.71875 11.71875 
Q 50 13.28125 39.84375 11.71875 
Q 34.375 9.375 33.59375 17.1875 
Q 34.375 28.125 32.03125 37.5 
Q 32.03125 43.75 36.71875 42.96875 
Q 39.84375 42.1875 42.96875 41.40625 
z
" id="LiSu-95f4"/>
     </defs>
     <g transform="translate(722 589.878276)scale(0.16 -0.16)">
      <use xlink:href="#LiSu-65f6"/>
      <use x="100" xlink:href="#LiSu-95f4"/>
     </g>
    </g>
   </g>
   <g id="matplotlib.axis_2">
    <g id="ytick_1">
     <g id="line2d_25">
      <path clip-path="url(#p2bb382e6ec)" d="M 180 492.48 
L 1296 492.48 
" style="fill:none;opacity:0.4;stroke:#b0b0b0;stroke-linecap:square;stroke-width:0.8;"/>
     </g>
     <g id="line2d_26">
      <defs>
       <path d="M 0 0 
L -3.5 0 
" id="m65d3a7f25e" style="stroke:#000000;stroke-width:0.8;"/>
      </defs>
      <g>
       <use style="stroke:#000000;stroke-width:0.8;" x="180" xlink:href="#m65d3a7f25e" y="492.48"/>
      </g>
     </g>
     <g id="text_14">
      <!-- 20 -->
      <g transform="translate(157 498.19875)scale(0.16 -0.16)">
       <use xlink:href="#LiSu-32"/>
       <use x="50" xlink:href="#LiSu-30"/>
      </g>
     </g>
    </g>
    <g id="ytick_2">
     <g id="line2d_27">
      <path clip-path="url(#p2bb382e6ec)" d="M 180 465.6 
L 1296 465.6 
" style="fill:none;opacity:0.4;stroke:#b0b0b0;stroke-linecap:square;stroke-width:0.8;"/>
     </g>
     <g id="line2d_28">
      <g>
       <use style="stroke:#000000;stroke-width:0.8;" x="180" xlink:href="#m65d3a7f25e" y="465.6"/>
      </g>
     </g>
     <g id="text_15">
      <!-- 21 -->
      <g transform="translate(157 471.31875)scale(0.16 -0.16)">
       <use xlink:href="#LiSu-32"/>
       <use x="50" xlink:href="#LiSu-31"/>
      </g>
     </g>
    </g>
    <g id="ytick_3">
     <g id="line2d_29">
      <path clip-path="url(#p2bb382e6ec)" d="M 180 438.72 
L 1296 438.72 
" style="fill:none;opacity:0.4;stroke:#b0b0b0;stroke-linecap:square;stroke-width:0.8;"/>
     </g>
     <g id="line2d_30">
      <g>
       <use style="stroke:#000000;stroke-width:0.8;" x="180" xlink:href="#m65d3a7f25e" y="438.72"/>
      </g>
     </g>
     <g id="text_16">
      <!-- 22 -->
      <g transform="translate(157 444.43875)scale(0.16 -0.16)">
       <use xlink:href="#LiSu-32"/>
       <use x="50" xlink:href="#LiSu-32"/>
      </g>
     </g>
    </g>
    <g id="ytick_4">
     <g id="line2d_31">
      <path clip-path="url(#p2bb382e6ec)" d="M 180 411.84 
L 1296 411.84 
" style="fill:none;opacity:0.4;stroke:#b0b0b0;stroke-linecap:square;stroke-width:0.8;"/>
     </g>
     <g id="line2d_32">
      <g>
       <use style="stroke:#000000;stroke-width:0.8;" x="180" xlink:href="#m65d3a7f25e" y="411.84"/>
      </g>
     </g>
     <g id="text_17">
      <!-- 23 -->
      <g transform="translate(157 417.55875)scale(0.16 -0.16)">
       <use xlink:href="#LiSu-32"/>
       <use x="50" xlink:href="#LiSu-33"/>
      </g>
     </g>
    </g>
    <g id="ytick_5">
     <g id="line2d_33">
      <path clip-path="url(#p2bb382e6ec)" d="M 180 384.96 
L 1296 384.96 
" style="fill:none;opacity:0.4;stroke:#b0b0b0;stroke-linecap:square;stroke-width:0.8;"/>
     </g>
     <g id="line2d_34">
      <g>
       <use style="stroke:#000000;stroke-width:0.8;" x="180" xlink:href="#m65d3a7f25e" y="384.96"/>
      </g>
     </g>
     <g id="text_18">
      <!-- 24 -->
      <g transform="translate(157 390.67875)scale(0.16 -0.16)">
       <use xlink:href="#LiSu-32"/>
       <use x="50" xlink:href="#LiSu-34"/>
      </g>
     </g>
    </g>
    <g id="ytick_6">
     <g id="line2d_35">
      <path clip-path="url(#p2bb382e6ec)" d="M 180 358.08 
L 1296 358.08 
" style="fill:none;opacity:0.4;stroke:#b0b0b0;stroke-linecap:square;stroke-width:0.8;"/>
     </g>
     <g id="line2d_36">
      <g>
       <use style="stroke:#000000;stroke-width:0.8;" x="180" xlink:href="#m65d3a7f25e" y="358.08"/>
      </g>
     </g>
     <g id="text_19">
      <!-- 25 -->
      <g transform="translate(157 363.79875)scale(0.16 -0.16)">
       <use xlink:href="#LiSu-32"/>
       <use x="50" xlink:href="#LiSu-35"/>
      </g>
     </g>
    </g>
    <g id="ytick_7">
     <g id="line2d_37">
      <path clip-path="url(#p2bb382e6ec)" d="M 180 331.2 
L 1296 331.2 
" style="fill:none;opacity:0.4;stroke:#b0b0b0;stroke-linecap:square;stroke-width:0.8;"/>
     </g>
     <g id="line2d_38">
      <g>
       <use style="stroke:#000000;stroke-width:0.8;" x="180" xlink:href="#m65d3a7f25e" y="331.2"/>
      </g>
     </g>
     <g id="text_20">
      <!-- 26 -->
      <defs>
       <path d="M 12.109375 28.125 
Q 12.109375 16.40625 16.203125 9.953125 
Q 20.3125 3.515625 26.171875 3.515625 
Q 32.03125 3.515625 35.15625 7.8125 
Q 38.28125 12.109375 38.28125 23.828125 
Q 38.28125 31.640625 34.953125 35.9375 
Q 31.640625 40.234375 26.953125 40.234375 
Q 22.65625 40.234375 18.9375 37.6875 
Q 15.234375 35.15625 12.109375 28.125 
z
M 27.34375 44.140625 
Q 36.71875 44.140625 40.8125 37.890625 
Q 44.921875 31.640625 44.921875 23.828125 
Q 44.921875 12.109375 39.25 6.4375 
Q 33.59375 0.78125 26.171875 0.78125 
Q 15.625 0.78125 10.15625 8.78125 
Q 4.6875 16.796875 4.6875 32.03125 
Q 4.6875 50 11.328125 59.5625 
Q 17.96875 69.140625 29.296875 69.140625 
Q 34.765625 69.140625 38.078125 66.015625 
Q 41.40625 62.890625 41.40625 60.546875 
Q 41.40625 58.203125 40.421875 57.03125 
Q 39.453125 55.859375 37.109375 55.859375 
Q 35.15625 55.859375 34.171875 56.828125 
Q 33.203125 57.8125 33.203125 59.765625 
Q 33.203125 60.546875 33.390625 61.328125 
Q 33.59375 62.109375 33.59375 62.890625 
Q 33.59375 64.453125 32.421875 65.421875 
Q 31.25 66.40625 28.125 66.40625 
Q 21.484375 66.40625 16.796875 60.34375 
Q 12.109375 54.296875 12.109375 33.984375 
Q 14.453125 39.0625 18.546875 41.59375 
Q 22.65625 44.140625 27.34375 44.140625 
z
" id="LiSu-36"/>
      </defs>
      <g transform="translate(157 336.91875)scale(0.16 -0.16)">
       <use xlink:href="#LiSu-32"/>
       <use x="50" xlink:href="#LiSu-36"/>
      </g>
     </g>
    </g>
    <g id="ytick_8">
     <g id="line2d_39">
      <path clip-path="url(#p2bb382e6ec)" d="M 180 304.32 
L 1296 304.32 
" style="fill:none;opacity:0.4;stroke:#b0b0b0;stroke-linecap:square;stroke-width:0.8;"/>
     </g>
     <g id="line2d_40">
      <g>
       <use style="stroke:#000000;stroke-width:0.8;" x="180" xlink:href="#m65d3a7f25e" y="304.32"/>
      </g>
     </g>
     <g id="text_21">
      <!-- 27 -->
      <defs>
       <path d="M 44.140625 65.625 
Q 35.9375 52.34375 31.046875 39.640625 
Q 26.171875 26.953125 26.171875 17.578125 
Q 26.171875 16.015625 26.359375 13.078125 
Q 26.5625 10.15625 26.5625 6.25 
Q 26.5625 3.125 25.578125 1.953125 
Q 24.609375 0.78125 22.265625 0.78125 
Q 20.3125 0.78125 18.9375 2.140625 
Q 17.578125 3.515625 17.578125 7.03125 
Q 17.578125 14.453125 20.890625 25.390625 
Q 24.21875 36.328125 38.671875 62.5 
L 19.140625 62.5 
Q 14.84375 62.5 12.296875 59.765625 
Q 9.765625 57.03125 8.59375 51.5625 
L 6.25 51.953125 
L 8.984375 68.359375 
L 44.140625 68.359375 
z
" id="LiSu-37"/>
      </defs>
      <g transform="translate(157 310.03875)scale(0.16 -0.16)">
       <use xlink:href="#LiSu-32"/>
       <use x="50" xlink:href="#LiSu-37"/>
      </g>
     </g>
    </g>
    <g id="ytick_9">
     <g id="line2d_41">
      <path clip-path="url(#p2bb382e6ec)" d="M 180 277.44 
L 1296 277.44 
" style="fill:none;opacity:0.4;stroke:#b0b0b0;stroke-linecap:square;stroke-width:0.8;"/>
     </g>
     <g id="line2d_42">
      <g>
       <use style="stroke:#000000;stroke-width:0.8;" x="180" xlink:href="#m65d3a7f25e" y="277.44"/>
      </g>
     </g>
     <g id="text_22">
      <!-- 28 -->
      <defs>
       <path d="M 9.765625 17.578125 
Q 9.765625 11.328125 13.859375 7.421875 
Q 17.96875 3.515625 24.21875 3.515625 
Q 31.640625 3.515625 34.953125 7.421875 
Q 38.28125 11.328125 38.28125 17.1875 
Q 38.28125 22.265625 33.59375 26.953125 
Q 28.90625 31.640625 19.53125 35.546875 
Q 14.84375 32.421875 12.296875 27.734375 
Q 9.765625 23.046875 9.765625 17.578125 
z
M 44.140625 18.359375 
Q 44.140625 10.9375 38.671875 5.859375 
Q 33.203125 0.78125 24.21875 0.78125 
Q 16.015625 0.78125 10.15625 5.859375 
Q 4.296875 10.9375 4.296875 17.578125 
Q 4.296875 24.21875 7.609375 28.90625 
Q 10.9375 33.59375 17.1875 37.109375 
Q 11.71875 39.84375 8.78125 43.9375 
Q 5.859375 48.046875 5.859375 53.125 
Q 5.859375 59.765625 10.9375 64.453125 
Q 16.015625 69.140625 25 69.140625 
Q 33.203125 69.140625 38.28125 64.453125 
Q 43.359375 59.765625 43.359375 53.125 
Q 43.359375 48.4375 40.421875 44.328125 
Q 37.5 40.234375 31.25 37.109375 
Q 37.890625 33.203125 41.015625 28.515625 
Q 44.140625 23.828125 44.140625 18.359375 
z
M 37.890625 52.734375 
Q 37.890625 58.203125 34.765625 62.296875 
Q 31.640625 66.40625 25 66.40625 
Q 17.578125 66.40625 14.453125 62.5 
Q 11.328125 58.59375 11.328125 54.296875 
Q 11.328125 50 15.8125 45.890625 
Q 20.3125 41.796875 28.515625 38.671875 
Q 33.203125 41.015625 35.546875 44.53125 
Q 37.890625 48.046875 37.890625 52.734375 
z
" id="LiSu-38"/>
      </defs>
      <g transform="translate(157 283.15875)scale(0.16 -0.16)">
       <use xlink:href="#LiSu-32"/>
       <use x="50" xlink:href="#LiSu-38"/>
      </g>
     </g>
    </g>
    <g id="ytick_10">
     <g id="line2d_43">
      <path clip-path="url(#p2bb382e6ec)" d="M 180 250.56 
L 1296 250.56 
" style="fill:none;opacity:0.4;stroke:#b0b0b0;stroke-linecap:square;stroke-width:0.8;"/>
     </g>
     <g id="line2d_44">
      <g>
       <use style="stroke:#000000;stroke-width:0.8;" x="180" xlink:href="#m65d3a7f25e" y="250.56"/>
      </g>
     </g>
     <g id="text_23">
      <!-- 29 -->
      <defs>
       <path d="M 10.9375 47.65625 
Q 10.9375 39.0625 14.25 34.5625 
Q 17.578125 30.078125 22.65625 30.078125 
Q 28.515625 30.078125 32.8125 35.546875 
Q 37.109375 41.015625 37.109375 45.703125 
Q 37.109375 55.078125 33.984375 60.734375 
Q 30.859375 66.40625 23.828125 66.40625 
Q 17.1875 66.40625 14.0625 61.125 
Q 10.9375 55.859375 10.9375 47.65625 
z
M 21.484375 26.5625 
Q 13.671875 26.5625 8.984375 31.4375 
Q 4.296875 36.328125 4.296875 47.265625 
Q 4.296875 56.640625 9.375 62.890625 
Q 14.453125 69.140625 23.828125 69.140625 
Q 33.59375 69.140625 39.0625 61.328125 
Q 44.53125 53.515625 44.53125 38.671875 
Q 44.53125 22.265625 38.078125 11.515625 
Q 31.640625 0.78125 20.3125 0.78125 
Q 15.234375 0.78125 11.515625 3.125 
Q 7.8125 5.46875 7.8125 9.375 
Q 7.8125 10.9375 8.78125 12.5 
Q 9.765625 14.0625 12.109375 14.0625 
Q 14.453125 14.0625 15.234375 12.296875 
Q 16.015625 10.546875 16.015625 8.203125 
Q 16.015625 6.640625 16.40625 5.65625 
Q 16.796875 4.6875 17.1875 4.296875 
Q 17.578125 3.90625 18.546875 3.703125 
Q 19.53125 3.515625 20.703125 3.515625 
Q 27.734375 3.515625 32.03125 11.328125 
Q 36.328125 19.140625 37.109375 37.5 
Q 35.15625 32.8125 31.25 29.6875 
Q 27.34375 26.5625 21.484375 26.5625 
z
" id="LiSu-39"/>
      </defs>
      <g transform="translate(157 256.27875)scale(0.16 -0.16)">
       <use xlink:href="#LiSu-32"/>
       <use x="50" xlink:href="#LiSu-39"/>
      </g>
     </g>
    </g>
    <g id="ytick_11">
     <g id="line2d_45">
      <path clip-path="url(#p2bb382e6ec)" d="M 180 223.68 
L 1296 223.68 
" style="fill:none;opacity:0.4;stroke:#b0b0b0;stroke-linecap:square;stroke-width:0.8;"/>
     </g>
     <g id="line2d_46">
      <g>
       <use style="stroke:#000000;stroke-width:0.8;" x="180" xlink:href="#m65d3a7f25e" y="223.68"/>
      </g>
     </g>
     <g id="text_24">
      <!-- 30 -->
      <g transform="translate(157 229.39875)scale(0.16 -0.16)">
       <use xlink:href="#LiSu-33"/>
       <use x="50" xlink:href="#LiSu-30"/>
      </g>
     </g>
    </g>
    <g id="ytick_12">
     <g id="line2d_47">
      <path clip-path="url(#p2bb382e6ec)" d="M 180 196.8 
L 1296 196.8 
" style="fill:none;opacity:0.4;stroke:#b0b0b0;stroke-linecap:square;stroke-width:0.8;"/>
     </g>
     <g id="line2d_48">
      <g>
       <use style="stroke:#000000;stroke-width:0.8;" x="180" xlink:href="#m65d3a7f25e" y="196.8"/>
      </g>
     </g>
     <g id="text_25">
      <!-- 31 -->
      <g transform="translate(157 202.51875)scale(0.16 -0.16)">
       <use xlink:href="#LiSu-33"/>
       <use x="50" xlink:href="#LiSu-31"/>
      </g>
     </g>
    </g>
    <g id="ytick_13">
     <g id="line2d_49">
      <path clip-path="url(#p2bb382e6ec)" d="M 180 169.92 
L 1296 169.92 
" style="fill:none;opacity:0.4;stroke:#b0b0b0;stroke-linecap:square;stroke-width:0.8;"/>
     </g>
     <g id="line2d_50">
      <g>
       <use style="stroke:#000000;stroke-width:0.8;" x="180" xlink:href="#m65d3a7f25e" y="169.92"/>
      </g>
     </g>
     <g id="text_26">
      <!-- 32 -->
      <g transform="translate(157 175.63875)scale(0.16 -0.16)">
       <use xlink:href="#LiSu-33"/>
       <use x="50" xlink:href="#LiSu-32"/>
      </g>
     </g>
    </g>
    <g id="ytick_14">
     <g id="line2d_51">
      <path clip-path="url(#p2bb382e6ec)" d="M 180 143.04 
L 1296 143.04 
" style="fill:none;opacity:0.4;stroke:#b0b0b0;stroke-linecap:square;stroke-width:0.8;"/>
     </g>
     <g id="line2d_52">
      <g>
       <use style="stroke:#000000;stroke-width:0.8;" x="180" xlink:href="#m65d3a7f25e" y="143.04"/>
      </g>
     </g>
     <g id="text_27">
      <!-- 33 -->
      <g transform="translate(157 148.75875)scale(0.16 -0.16)">
       <use xlink:href="#LiSu-33"/>
       <use x="50" xlink:href="#LiSu-33"/>
      </g>
     </g>
    </g>
    <g id="ytick_15">
     <g id="line2d_53">
      <path clip-path="url(#p2bb382e6ec)" d="M 180 116.16 
L 1296 116.16 
" style="fill:none;opacity:0.4;stroke:#b0b0b0;stroke-linecap:square;stroke-width:0.8;"/>
     </g>
     <g id="line2d_54">
      <g>
       <use style="stroke:#000000;stroke-width:0.8;" x="180" xlink:href="#m65d3a7f25e" y="116.16"/>
      </g>
     </g>
     <g id="text_28">
      <!-- 34 -->
      <g transform="translate(157 121.87875)scale(0.16 -0.16)">
       <use xlink:href="#LiSu-33"/>
       <use x="50" xlink:href="#LiSu-34"/>
      </g>
     </g>
    </g>
    <g id="text_29">
     <!-- 温度 单位（摄氏度） -->
     <defs>
      <path d="M 42.1875 13.28125 
Q 45.3125 13.28125 48.4375 14.0625 
Q 50 20.3125 48.4375 26.5625 
Q 45.3125 28.125 41.40625 26.5625 
Q 40.625 19.53125 42.1875 13.28125 
z
M 54.6875 14.0625 
Q 58.59375 13.28125 60.9375 14.0625 
Q 62.5 20.3125 60.9375 26.5625 
Q 57.03125 28.125 54.6875 26.5625 
Q 53.90625 20.3125 54.6875 14.0625 
z
M 68.75 46.09375 
L 45.3125 46.09375 
Q 43.75 42.96875 46.875 41.40625 
L 68.75 41.40625 
Q 71.875 44.53125 68.75 46.09375 
z
M 46.875 55.46875 
Q 42.1875 54.6875 45.3125 50 
L 69.53125 50 
Q 71.875 53.90625 68.75 55.46875 
z
M 41.40625 60.9375 
Q 56.25 57.03125 73.4375 60.9375 
Q 78.90625 60.15625 79.6875 55.46875 
Q 77.34375 50 76.5625 37.5 
Q 76.5625 34.375 70.3125 35.9375 
Q 54.6875 38.28125 42.1875 35.15625 
Q 38.28125 35.15625 38.28125 38.28125 
Q 37.5 49.21875 35.9375 56.25 
Q 36.71875 61.71875 41.40625 60.9375 
z
M 8.59375 15.625 
Q 16.40625 19.53125 26.5625 25 
Q 28.90625 25.78125 28.125 22.65625 
Q 25 16.40625 18.75 10.9375 
Q 13.28125 5.46875 10.15625 6.25 
Q 2.34375 9.375 8.59375 15.625 
z
M 9.375 42.1875 
Q 18.75 39.84375 30.46875 34.375 
Q 30.46875 32.8125 28.125 32.03125 
Q 17.96875 29.6875 7.8125 32.03125 
Q 3.90625 33.59375 3.125 36.71875 
Q 3.125 42.1875 9.375 42.1875 
z
M 15.625 58.59375 
Q 24.21875 54.6875 30.46875 47.65625 
Q 31.25 46.875 26.5625 46.09375 
Q 14.84375 46.09375 10.15625 52.34375 
Q 7.8125 59.375 15.625 58.59375 
z
M 38.28125 32.8125 
Q 61.71875 31.25 77.34375 33.59375 
Q 82.8125 32.8125 82.8125 28.125 
Q 81.25 24.21875 82.03125 13.28125 
Q 92.96875 12.5 97.65625 12.5 
Q 95.3125 7.03125 92.96875 4.6875 
Q 89.84375 0.78125 83.59375 3.125 
Q 74.21875 7.03125 53.125 7.8125 
Q 34.375 7.8125 25 3.125 
Q 20.3125 2.34375 22.65625 9.375 
Q 25.78125 14.0625 35.15625 13.28125 
Q 35.15625 25 34.375 29.6875 
Q 35.15625 32.03125 38.28125 32.8125 
z
M 75 13.28125 
Q 75.78125 26.5625 73.4375 26.5625 
Q 69.53125 28.125 66.40625 26.5625 
Q 65.625 20.3125 66.40625 14.0625 
Q 71.09375 13.28125 75 13.28125 
z
" id="LiSu-6e29"/>
      <path d="M 46.09375 57.03125 
L 46.09375 60.15625 
Q 46.875 64.84375 51.5625 64.84375 
Q 53.90625 64.84375 56.25 62.5 
Q 57.03125 60.15625 57.03125 57.03125 
L 64.84375 57.03125 
Q 83.59375 57.03125 83.59375 54.6875 
Q 82.8125 51.5625 79.6875 52.34375 
L 67.1875 52.34375 
Q 66.40625 50.78125 67.1875 47.65625 
Q 78.125 47.65625 81.25 46.09375 
Q 82.8125 42.96875 80.46875 42.1875 
Q 74.21875 42.96875 67.1875 42.1875 
Q 66.40625 39.0625 66.40625 35.15625 
Q 67.1875 31.25 62.5 32.03125 
Q 60.15625 32.8125 57.8125 33.59375 
Q 49.21875 34.375 45.3125 32.8125 
Q 39.84375 31.25 39.84375 35.9375 
Q 40.625 39.84375 39.84375 42.1875 
Q 34.375 42.96875 27.34375 41.40625 
Q 27.34375 33.59375 25.78125 26.5625 
Q 24.21875 19.53125 20.3125 14.0625 
Q 14.84375 3.90625 5.46875 8.59375 
Q 2.34375 10.9375 4.6875 13.28125 
Q 8.59375 15.625 13.28125 20.3125 
Q 17.1875 25 18.75 29.6875 
Q 21.09375 35.9375 21.09375 41.40625 
Q 21.09375 48.4375 19.53125 53.90625 
Q 19.53125 60.15625 25.78125 59.375 
Q 30.46875 55.46875 46.09375 57.03125 
z
M 39.84375 46.875 
Q 40.625 50 39.84375 52.34375 
Q 36.71875 53.125 27.34375 52.34375 
Q 26.5625 50.78125 27.34375 46.875 
Q 33.59375 46.09375 39.84375 46.875 
z
M 53.90625 16.40625 
Q 49.21875 19.53125 43.75 21.875 
Q 40.625 23.4375 37.5 24.21875 
Q 35.9375 25.78125 37.5 28.125 
Q 38.28125 29.6875 41.40625 30.46875 
Q 46.09375 29.6875 52.34375 31.25 
Q 57.8125 32.03125 62.5 29.6875 
Q 64.84375 29.6875 67.1875 31.25 
Q 71.875 30.46875 70.3125 25.78125 
Q 67.96875 24.21875 64.0625 17.96875 
Q 86.71875 10.9375 97.65625 11.71875 
Q 95.3125 5.46875 90.625 1.5625 
Q 86.71875 -0.78125 82.03125 0.78125 
Q 71.875 7.8125 59.375 13.28125 
Q 44.53125 3.90625 31.25 2.34375 
Q 24.21875 1.5625 22.65625 8.59375 
Q 24.21875 9.375 32.03125 9.375 
Q 45.3125 10.9375 53.90625 16.40625 
z
M 60.9375 42.1875 
Q 53.125 43.75 46.875 42.1875 
Q 45.3125 40.625 46.875 38.28125 
Q 53.90625 37.5 60.15625 38.28125 
Q 60.9375 39.84375 60.9375 42.1875 
z
M 60.9375 52.34375 
Q 52.34375 53.125 46.875 52.34375 
Q 46.09375 50 46.875 47.65625 
Q 53.125 46.09375 60.9375 47.65625 
Q 61.71875 50 60.9375 52.34375 
z
M 47.65625 25.78125 
Q 51.5625 23.4375 57.8125 21.09375 
Q 60.15625 22.65625 60.9375 25 
Q 60.9375 27.34375 57.03125 27.34375 
Q 50.78125 27.34375 47.65625 25.78125 
z
" id="LiSu-5ea6"/>
      <path id="LiSu-20"/>
      <path d="M 54.6875 48.4375 
L 54.6875 42.96875 
L 73.4375 42.96875 
Q 74.21875 48.4375 70.3125 48.4375 
z
M 46.09375 42.96875 
L 46.09375 48.4375 
Q 40.625 48.4375 32.03125 47.65625 
Q 28.90625 46.875 29.6875 42.96875 
z
M 46.09375 38.28125 
L 30.46875 38.28125 
Q 30.46875 33.59375 34.375 33.59375 
L 46.09375 33.59375 
z
M 54.6875 33.59375 
L 71.09375 33.59375 
Q 73.4375 34.375 73.4375 38.28125 
L 54.6875 38.28125 
z
M 33.59375 59.375 
Q 32.8125 64.0625 37.5 64.0625 
Q 41.40625 64.0625 42.96875 58.59375 
Q 43.75 55.46875 46.09375 52.34375 
L 53.90625 52.34375 
Q 57.8125 57.03125 57.8125 62.5 
Q 58.59375 64.0625 62.5 64.0625 
Q 64.84375 63.28125 66.40625 61.71875 
Q 68.75 57.8125 58.59375 52.34375 
Q 65.625 52.34375 72.65625 53.125 
Q 74.21875 54.6875 77.34375 54.6875 
Q 83.59375 53.90625 82.03125 48.4375 
Q 79.6875 39.0625 78.125 29.6875 
Q 77.34375 26.5625 72.65625 27.34375 
Q 64.84375 29.6875 54.6875 28.90625 
L 54.6875 24.21875 
Q 90.625 23.4375 96.09375 21.875 
Q 92.1875 14.84375 89.0625 13.28125 
Q 84.375 10.9375 79.6875 13.28125 
Q 75 16.40625 54.6875 17.96875 
L 54.6875 6.25 
Q 54.6875 2.34375 50 2.34375 
Q 46.875 3.125 46.09375 7.03125 
L 46.09375 17.96875 
Q 21.09375 17.96875 10.15625 14.0625 
Q 5.46875 11.71875 5.46875 17.1875 
Q 7.03125 23.4375 10.15625 23.4375 
Q 16.40625 24.21875 20.3125 23.4375 
Q 31.25 23.4375 46.09375 24.21875 
L 46.09375 28.90625 
Q 32.03125 28.90625 27.34375 27.34375 
Q 25.78125 26.5625 24.21875 29.6875 
Q 21.875 39.0625 21.09375 50 
Q 21.875 54.6875 25.78125 53.90625 
Q 31.25 51.5625 40.625 52.34375 
Q 35.9375 54.6875 33.59375 59.375 
z
" id="LiSu-5355"/>
      <path d="M 65.625 54.6875 
Q 64.84375 50 66.40625 50 
Q 86.71875 49.21875 89.0625 48.4375 
Q 91.40625 46.09375 89.0625 44.53125 
Q 84.375 42.96875 74.21875 43.75 
Q 76.5625 42.96875 77.34375 40.625 
Q 75 25 67.1875 15.625 
Q 82.03125 13.28125 96.875 14.0625 
Q 89.84375 0.78125 79.6875 5.46875 
Q 72.65625 8.59375 60.15625 9.375 
Q 40.625 10.15625 32.8125 6.25 
Q 27.34375 4.6875 28.125 10.15625 
Q 32.03125 17.1875 36.71875 17.1875 
Q 42.1875 14.84375 63.28125 15.625 
Q 68.75 32.8125 69.53125 43.75 
Q 45.3125 45.3125 36.71875 41.40625 
Q 32.8125 40.625 32.8125 43.75 
Q 35.15625 50 40.625 50.78125 
Q 44.53125 48.4375 53.125 50 
Q 53.90625 50.78125 53.90625 57.03125 
Q 54.6875 61.71875 58.59375 62.5 
Q 66.40625 61.71875 65.625 54.6875 
z
M 53.90625 39.0625 
Q 53.125 29.6875 55.46875 18.75 
Q 54.6875 14.84375 50.78125 18.75 
Q 46.09375 26.5625 45.3125 35.9375 
Q 44.53125 42.1875 49.21875 42.1875 
Q 53.125 42.1875 53.90625 39.0625 
z
M 35.15625 62.5 
Q 37.5 64.0625 37.5 60.9375 
Q 33.59375 52.34375 25.78125 46.875 
L 25.78125 5.46875 
Q 25 2.34375 21.09375 2.34375 
Q 18.75 2.34375 17.1875 5.46875 
Q 17.96875 24.21875 17.96875 42.96875 
Q 7.03125 37.5 3.90625 43.75 
Q 3.125 46.09375 3.125 48.4375 
Q 6.25 49.21875 16.40625 52.34375 
Q 25.78125 55.46875 35.15625 62.5 
z
" id="LiSu-4f4d"/>
      <path d="M 91.40625 74.21875 
Q 83.59375 67.96875 78.125 57.8125 
Q 74.21875 50 72.65625 38.28125 
Q 71.09375 31.25 72.65625 18.75 
Q 74.21875 6.25 79.6875 -1.5625 
Q 84.375 -9.375 89.84375 -14.84375 
Q 81.25 -13.28125 73.4375 -3.125 
Q 65.625 8.59375 64.0625 17.96875 
Q 60.9375 30.46875 64.0625 42.1875 
Q 67.1875 54.6875 75 63.28125 
Q 82.8125 71.09375 91.40625 74.21875 
z
" id="LiSu-ff08"/>
      <path d="M 46.09375 54.6875 
Q 39.84375 52.34375 39.0625 56.25 
Q 40.625 59.375 42.96875 60.9375 
Q 45.3125 62.5 47.65625 60.9375 
Q 57.8125 60.15625 67.96875 60.9375 
Q 82.03125 60.9375 84.375 59.375 
Q 86.71875 56.25 83.59375 55.46875 
Q 78.125 56.25 75.78125 56.25 
L 75.78125 39.0625 
Q 89.0625 39.0625 90.625 37.5 
Q 92.1875 34.375 82.8125 34.375 
L 75.78125 34.375 
Q 75.78125 32.03125 75 31.25 
L 71.09375 31.25 
Q 69.53125 32.03125 69.53125 32.8125 
L 69.53125 35.15625 
Q 57.8125 35.15625 47.65625 34.375 
Q 45.3125 33.59375 43.75 33.59375 
Q 40.625 32.8125 37.5 32.03125 
Q 35.15625 32.03125 35.15625 34.375 
Q 36.71875 39.0625 40.625 39.84375 
Q 42.96875 39.84375 46.09375 39.0625 
z
M 69.53125 39.0625 
L 69.53125 42.1875 
L 51.5625 42.1875 
L 51.5625 38.28125 
z
M 69.53125 49.21875 
L 51.5625 49.21875 
L 51.5625 45.3125 
L 69.53125 45.3125 
z
M 21.875 51.5625 
Q 20.3125 62.5 25 63.28125 
Q 32.03125 62.5 29.6875 51.5625 
L 39.0625 51.5625 
Q 39.0625 50.78125 39.84375 50 
Q 39.84375 47.65625 37.5 46.875 
L 29.6875 46.875 
Q 28.90625 41.40625 30.46875 39.84375 
Q 32.8125 39.84375 35.15625 40.625 
Q 38.28125 40.625 35.9375 36.71875 
L 29.6875 34.375 
L 29.6875 20.3125 
Q 31.25 0.78125 15.625 3.125 
Q 7.8125 4.6875 4.6875 7.8125 
Q 1.5625 12.5 4.6875 11.71875 
Q 7.8125 10.9375 10.9375 10.9375 
Q 22.65625 10.15625 21.875 21.09375 
L 21.875 32.03125 
Q 4.6875 24.21875 6.25 32.8125 
Q 6.25 34.375 7.8125 35.15625 
Q 11.71875 35.9375 14.84375 36.71875 
L 21.875 38.28125 
L 21.875 46.09375 
Q 17.96875 46.875 11.71875 44.53125 
Q 7.03125 42.96875 7.8125 46.875 
Q 7.8125 50.78125 11.71875 52.34375 
Q 17.96875 50.78125 21.875 51.5625 
z
M 52.34375 29.6875 
Q 54.6875 31.25 57.8125 30.46875 
Q 62.5 28.125 57.8125 20.3125 
L 54.6875 16.40625 
L 57.8125 14.0625 
Q 60.15625 10.9375 57.8125 9.375 
Q 55.46875 10.15625 52.34375 11.71875 
Q 45.3125 6.25 38.28125 4.6875 
Q 32.8125 4.6875 32.03125 7.8125 
Q 29.6875 10.9375 32.8125 11.71875 
Q 38.28125 11.71875 46.09375 15.625 
Q 39.0625 17.1875 41.40625 21.875 
Q 44.53125 25 50 18.75 
Q 51.5625 21.09375 52.34375 23.4375 
Q 53.90625 26.5625 50.78125 26.5625 
Q 45.3125 27.34375 39.84375 24.21875 
Q 37.5 23.4375 38.28125 26.5625 
Q 38.28125 28.125 40.625 29.6875 
z
M 65.625 25.78125 
Q 62.5 25 63.28125 28.125 
Q 67.96875 31.25 77.34375 29.6875 
Q 82.8125 31.25 83.59375 25.78125 
Q 82.03125 21.09375 79.6875 16.40625 
Q 90.625 9.375 97.65625 7.8125 
Q 98.4375 3.90625 92.96875 0.78125 
Q 89.84375 -1.5625 85.15625 3.125 
Q 79.6875 9.375 76.5625 12.5 
Q 67.96875 3.90625 58.59375 2.34375 
Q 55.46875 1.5625 53.125 4.6875 
Q 53.125 6.25 57.03125 7.03125 
Q 64.84375 9.375 71.875 15.625 
Q 65.625 19.53125 62.5 20.3125 
Q 60.9375 24.21875 64.84375 24.21875 
Q 68.75 22.65625 75 19.53125 
Q 76.5625 21.09375 76.5625 24.21875 
Q 75.78125 27.34375 65.625 25.78125 
z
M 69.53125 56.25 
L 51.5625 56.25 
L 51.5625 52.34375 
L 69.53125 52.34375 
z
" id="LiSu-6444"/>
      <path d="M 48.4375 35.15625 
Q 38.28125 35.15625 25 34.375 
L 25 19.53125 
Q 25 16.40625 26.5625 16.40625 
Q 32.03125 17.1875 36.71875 17.96875 
Q 46.875 21.09375 52.34375 25.78125 
z
M 53.90625 24.21875 
Q 53.125 21.09375 50 18.75 
Q 42.96875 12.5 32.8125 9.375 
Q 28.125 7.8125 24.21875 6.25 
Q 17.96875 3.90625 15.625 5.46875 
Q 10.9375 8.59375 11.71875 11.71875 
Q 13.28125 14.0625 14.84375 16.40625 
Q 17.96875 23.4375 17.1875 29.6875 
Q 15.625 46.09375 14.84375 52.34375 
Q 14.84375 54.6875 16.40625 57.03125 
Q 19.53125 60.15625 22.65625 57.8125 
Q 25 57.03125 27.34375 55.46875 
L 42.1875 57.03125 
Q 49.21875 57.8125 56.25 58.59375 
Q 61.71875 60.15625 64.84375 60.9375 
Q 67.96875 61.71875 71.875 59.375 
Q 77.34375 53.90625 71.875 53.125 
Q 63.28125 52.34375 52.34375 51.5625 
Q 52.34375 47.65625 54.6875 41.40625 
L 76.5625 41.40625 
Q 80.46875 39.84375 77.34375 36.71875 
Q 70.3125 35.15625 56.25 35.15625 
Q 59.375 30.46875 63.28125 26.5625 
Q 69.53125 21.09375 78.90625 17.1875 
Q 84.375 16.40625 89.84375 15.625 
Q 92.96875 15.625 96.875 14.84375 
Q 99.21875 13.28125 95.3125 9.375 
Q 89.0625 2.34375 82.03125 0.78125 
Q 75.78125 1.5625 70.3125 6.25 
Q 58.59375 16.40625 53.90625 24.21875 
z
M 46.875 41.40625 
L 44.53125 51.5625 
Q 29.6875 50.78125 27.34375 50.78125 
Q 25 50 25 40.625 
Q 35.15625 40.625 46.875 41.40625 
z
" id="LiSu-6c0f"/>
      <path d="M 14.84375 74.21875 
Q 36.71875 64.84375 41.40625 40.625 
Q 42.96875 29.6875 41.40625 17.96875 
Q 35.15625 -8.59375 14.84375 -14.84375 
Q 30.46875 -0.78125 32.03125 20.3125 
Q 33.59375 30.46875 32.03125 39.84375 
Q 29.6875 59.375 14.84375 74.21875 
z
" id="LiSu-ff09"/>
     </defs>
     <g transform="translate(150.625 366.88)rotate(-90)scale(0.16 -0.16)">
      <use xlink:href="#LiSu-6e29"/>
      <use x="100" xlink:href="#LiSu-5ea6"/>
      <use x="200" xlink:href="#LiSu-20"/>
      <use x="250" xlink:href="#LiSu-5355"/>
      <use x="350" xlink:href="#LiSu-4f4d"/>
      <use x="450" xlink:href="#LiSu-ff08"/>
      <use x="550" xlink:href="#LiSu-6444"/>
      <use x="650" xlink:href="#LiSu-6c0f"/>
      <use x="750" xlink:href="#LiSu-5ea6"/>
      <use x="850" xlink:href="#LiSu-ff09"/>
     </g>
    </g>
   </g>
   <g id="line2d_55">
    <path clip-path="url(#p2bb382e6ec)" d="M 230.727273 384.96 
L 239.252865 438.72 
L 247.778457 277.44 
L 256.304049 411.84 
L 264.829641 89.28 
L 273.355233 116.16 
L 281.880825 89.28 
L 290.406417 169.92 
L 298.932009 331.2 
L 307.457601 411.84 
L 315.983193 89.28 
L 324.508785 492.48 
L 333.034377 169.92 
L 341.559969 143.04 
L 350.085561 492.48 
L 358.611154 116.16 
L 367.136746 277.44 
L 375.662338 304.32 
L 384.18793 411.84 
L 392.713522 223.68 
L 401.239114 492.48 
L 409.764706 492.48 
L 418.290298 492.48 
L 426.81589 492.48 
L 435.341482 169.92 
L 443.867074 331.2 
L 452.392666 143.04 
L 460.918258 492.48 
L 469.44385 304.32 
L 477.969442 116.16 
L 486.495034 89.28 
L 495.020626 304.32 
L 503.546218 196.8 
L 512.071811 304.32 
L 520.597403 304.32 
L 529.122995 116.16 
L 537.648587 250.56 
L 546.174179 492.48 
L 554.699771 143.04 
L 563.225363 411.84 
L 571.750955 358.08 
L 580.276547 250.56 
L 588.802139 411.84 
L 597.327731 223.68 
L 605.853323 143.04 
L 614.378915 331.2 
L 622.904507 250.56 
L 631.430099 250.56 
L 639.955691 89.28 
L 648.481283 169.92 
L 657.006875 465.6 
L 665.532468 89.28 
L 674.05806 304.32 
L 682.583652 169.92 
L 691.109244 143.04 
L 699.634836 358.08 
L 708.160428 196.8 
L 716.68602 196.8 
L 725.211612 438.72 
L 733.737204 116.16 
L 742.262796 411.84 
L 750.788388 358.08 
L 759.31398 169.92 
L 767.839572 196.8 
L 776.365164 89.28 
L 784.890756 492.48 
L 793.416348 89.28 
L 801.94194 465.6 
L 810.467532 250.56 
L 818.993125 169.92 
L 827.518717 358.08 
L 836.044309 358.08 
L 844.569901 304.32 
L 853.095493 492.48 
L 861.621085 331.2 
L 870.146677 304.32 
L 878.672269 169.92 
L 887.197861 196.8 
L 895.723453 196.8 
L 904.249045 116.16 
L 912.774637 277.44 
L 921.300229 492.48 
L 929.825821 169.92 
L 938.351413 384.96 
L 946.877005 331.2 
L 955.402597 143.04 
L 963.928189 465.6 
L 972.453782 89.28 
L 980.979374 196.8 
L 989.504966 331.2 
L 998.030558 143.04 
L 1006.55615 89.28 
L 1015.081742 196.8 
L 1023.607334 143.04 
L 1032.132926 196.8 
L 1040.658518 492.48 
L 1049.18411 223.68 
L 1057.709702 116.16 
L 1066.235294 492.48 
L 1074.760886 304.32 
L 1083.286478 358.08 
L 1091.81207 358.08 
L 1100.337662 438.72 
L 1108.863254 277.44 
L 1117.388846 465.6 
L 1125.914439 438.72 
L 1134.440031 438.72 
L 1142.965623 492.48 
L 1151.491215 116.16 
L 1160.016807 492.48 
L 1168.542399 277.44 
L 1177.067991 304.32 
L 1185.593583 277.44 
L 1194.119175 411.84 
L 1202.644767 358.08 
L 1211.170359 196.8 
L 1219.695951 250.56 
L 1228.221543 438.72 
L 1236.747135 358.08 
L 1245.272727 358.08 
" style="fill:none;stroke:#1f77b4;stroke-linecap:square;stroke-width:1.5;"/>
   </g>
   <g id="patch_3">
    <path d="M 180 512.64 
L 180 69.12 
" style="fill:none;stroke:#000000;stroke-linecap:square;stroke-linejoin:miter;stroke-width:0.8;"/>
   </g>
   <g id="patch_4">
    <path d="M 1296 512.64 
L 1296 69.12 
" style="fill:none;stroke:#000000;stroke-linecap:square;stroke-linejoin:miter;stroke-width:0.8;"/>
   </g>
   <g id="patch_5">
    <path d="M 180 512.64 
L 1296 512.64 
" style="fill:none;stroke:#000000;stroke-linecap:square;stroke-linejoin:miter;stroke-width:0.8;"/>
   </g>
   <g id="patch_6">
    <path d="M 180 69.12 
L 1296 69.12 
" style="fill:none;stroke:#000000;stroke-linecap:square;stroke-linejoin:miter;stroke-width:0.8;"/>
   </g>
   <g id="text_30">
    <!-- 10点到12点每分钟的气温变化情况 -->
    <defs>
     <path d="M 15.625 58.59375 
Q 18.75 57.03125 23.4375 57.03125 
L 54.6875 57.03125 
Q 60.9375 56.25 58.59375 53.125 
Q 57.8125 51.5625 53.125 50.78125 
L 29.6875 50.78125 
Q 32.8125 49.21875 32.8125 46.09375 
Q 31.25 44.53125 28.125 40.625 
Q 25.78125 38.28125 35.15625 38.28125 
Q 44.53125 38.28125 44.53125 39.84375 
Q 36.71875 44.53125 39.0625 47.65625 
Q 40.625 49.21875 42.1875 48.4375 
Q 47.65625 44.53125 53.90625 42.1875 
Q 56.25 40.625 57.8125 38.28125 
Q 59.375 35.15625 57.03125 35.15625 
Q 53.125 35.15625 48.4375 37.5 
Q 47.65625 33.59375 39.0625 32.03125 
L 39.0625 27.34375 
Q 45.3125 26.5625 53.125 26.5625 
Q 56.25 26.5625 56.25 25 
Q 57.03125 22.65625 53.125 22.65625 
Q 45.3125 22.65625 39.0625 21.875 
L 39.0625 16.40625 
L 57.03125 16.40625 
Q 60.9375 14.0625 53.125 12.5 
Q 39.84375 11.71875 25 10.15625 
Q 14.84375 9.375 7.8125 6.25 
Q 4.6875 3.90625 3.90625 7.03125 
Q 4.6875 10.9375 5.46875 13.28125 
Q 7.03125 15.625 9.375 15.625 
Q 19.53125 15.625 31.25 16.40625 
L 31.25 21.875 
Q 24.21875 22.65625 18.75 20.3125 
Q 14.0625 19.53125 14.0625 23.4375 
Q 15.625 28.90625 21.875 28.125 
Q 25.78125 27.34375 31.25 27.34375 
L 31.25 32.8125 
Q 27.34375 35.15625 23.4375 34.375 
Q 21.875 33.59375 18.75 32.8125 
Q 15.625 32.8125 15.625 35.9375 
Q 14.84375 39.84375 18.75 41.40625 
Q 28.125 45.3125 27.34375 50.78125 
Q 17.96875 50.78125 12.5 48.4375 
Q 9.375 47.65625 9.375 50.78125 
Q 10.15625 58.59375 15.625 58.59375 
z
M 65.625 51.5625 
Q 69.53125 50.78125 69.53125 46.875 
Q 69.53125 45.3125 68.75 40.625 
L 68.75 25 
Q 69.53125 21.875 65.625 21.09375 
Q 62.5 20.3125 61.71875 24.21875 
Q 62.5 29.6875 62.5 39.84375 
Q 62.5 43.75 61.71875 49.21875 
Q 61.71875 52.34375 65.625 51.5625 
z
M 80.46875 62.5 
Q 86.71875 62.5 88.28125 56.25 
Q 86.71875 49.21875 86.71875 41.40625 
L 86.71875 21.875 
Q 86.71875 18.75 87.5 13.28125 
Q 88.28125 11.71875 88.28125 9.375 
Q 86.71875 1.5625 74.21875 0.78125 
Q 61.71875 3.125 57.8125 10.15625 
Q 57.8125 12.5 59.375 11.71875 
Q 64.0625 8.59375 73.4375 9.375 
Q 78.90625 10.15625 78.125 16.40625 
L 78.125 43.75 
Q 78.125 50 77.34375 56.25 
Q 76.5625 61.71875 80.46875 62.5 
z
" id="LiSu-5230"/>
     <path d="M 72.65625 17.1875 
L 79.6875 16.40625 
Q 82.03125 14.84375 79.6875 12.5 
L 71.09375 12.5 
Q 67.96875 2.34375 60.15625 0.78125 
Q 46.875 0 43.75 8.59375 
Q 42.96875 10.9375 44.53125 10.15625 
Q 51.5625 7.8125 55.46875 7.8125 
Q 59.375 7.8125 60.9375 11.71875 
Q 39.84375 14.0625 28.90625 10.9375 
Q 19.53125 8.59375 20.3125 16.40625 
Q 21.09375 20.3125 22.65625 23.4375 
L 23.4375 26.5625 
Q 16.40625 26.5625 9.375 24.21875 
Q 3.125 21.875 3.90625 26.5625 
Q 7.8125 34.375 11.71875 33.59375 
Q 21.09375 32.03125 25 32.8125 
Q 26.5625 36.71875 27.34375 44.53125 
Q 28.90625 47.65625 34.375 46.09375 
Q 46.875 44.53125 60.9375 45.3125 
Q 65.625 44.53125 69.53125 46.09375 
Q 75.78125 46.09375 75.78125 40.625 
Q 75 37.5 75 32.03125 
Q 85.15625 31.25 97.65625 31.25 
Q 98.4375 28.90625 92.1875 22.65625 
Q 87.5 20.3125 83.59375 22.65625 
Q 78.125 25 74.21875 25.78125 
Q 73.4375 21.09375 72.65625 17.1875 
z
M 65.625 26.5625 
L 32.03125 27.34375 
L 30.46875 21.09375 
Q 30.46875 17.1875 33.59375 17.96875 
L 63.28125 17.1875 
Q 64.84375 21.09375 65.625 26.5625 
z
M 31.25 59.375 
Q 34.375 64.0625 36.71875 64.0625 
Q 40.625 64.84375 41.40625 61.71875 
Q 42.1875 59.375 39.0625 56.25 
Q 63.28125 55.46875 78.90625 55.46875 
Q 83.59375 53.90625 80.46875 50.78125 
Q 38.28125 51.5625 33.59375 50 
Q 18.75 40.625 12.5 42.1875 
Q 9.375 43.75 10.9375 45.3125 
Q 21.09375 49.21875 31.25 59.375 
z
M 66.40625 32.03125 
Q 67.1875 36.71875 65.625 39.84375 
Q 51.5625 42.1875 35.15625 40.625 
Q 32.8125 35.9375 32.8125 32.03125 
z
M 49.21875 39.84375 
Q 50.78125 37.5 54.6875 35.9375 
Q 57.03125 33.59375 53.125 32.8125 
Q 42.1875 33.59375 44.53125 37.5 
Q 46.09375 40.625 49.21875 39.84375 
z
M 42.96875 25 
Q 46.09375 27.34375 49.21875 24.21875 
Q 51.5625 21.875 53.90625 19.53125 
Q 53.90625 17.96875 49.21875 18.75 
Q 38.28125 21.09375 42.96875 25 
z
" id="LiSu-6bcf"/>
     <path d="M 62.5 50 
Q 62.5 58.59375 63.28125 62.5 
Q 64.84375 63.28125 67.96875 63.28125 
Q 73.4375 61.71875 72.65625 57.8125 
L 72.65625 49.21875 
Q 78.90625 49.21875 82.8125 50.78125 
Q 85.15625 51.5625 88.28125 50.78125 
Q 92.1875 47.65625 92.1875 43.75 
Q 92.1875 41.40625 91.40625 39.0625 
Q 90.625 30.46875 88.28125 28.125 
Q 87.5 26.5625 85.15625 27.34375 
Q 79.6875 29.6875 71.875 28.90625 
L 71.875 22.65625 
Q 72.65625 14.84375 72.65625 7.03125 
Q 72.65625 1.5625 67.1875 1.5625 
Q 64.0625 0.78125 62.5 4.6875 
Q 61.71875 7.8125 62.5 28.90625 
Q 53.90625 28.125 50.78125 26.5625 
Q 45.3125 24.21875 45.3125 30.46875 
Q 45.3125 33.59375 45.3125 35.9375 
Q 44.53125 40.625 43.75 44.53125 
Q 42.96875 47.65625 45.3125 50 
Q 46.875 51.5625 49.21875 50.78125 
Q 51.5625 50 54.6875 49.21875 
Q 58.59375 48.4375 62.5 50 
z
M 22.65625 42.1875 
Q 25 42.1875 27.34375 41.40625 
Q 32.8125 41.40625 39.0625 40.625 
Q 42.1875 38.28125 37.5 36.71875 
L 32.8125 36.71875 
Q 32.03125 33.59375 32.8125 30.46875 
Q 38.28125 30.46875 42.1875 29.6875 
Q 44.53125 27.34375 41.40625 25.78125 
Q 37.5 25 32.8125 25.78125 
Q 31.25 20.3125 32.8125 17.1875 
Q 39.0625 19.53125 42.1875 20.3125 
Q 43.75 19.53125 42.96875 17.96875 
Q 39.84375 13.28125 32.8125 8.59375 
Q 28.125 6.25 23.4375 4.6875 
Q 21.09375 3.125 17.96875 7.8125 
Q 17.1875 10.15625 18.75 11.71875 
Q 20.3125 13.28125 21.875 14.84375 
Q 24.21875 18.75 24.21875 25 
Q 17.96875 25 11.71875 23.4375 
Q 6.25 22.65625 8.59375 26.5625 
Q 10.9375 31.25 13.28125 31.25 
Q 20.3125 29.6875 24.21875 30.46875 
Q 25 35.15625 23.4375 35.9375 
Q 21.09375 35.9375 17.1875 35.15625 
Q 14.84375 35.15625 15.625 38.28125 
Q 17.96875 41.40625 22.65625 42.1875 
z
M 24.21875 57.03125 
Q 26.5625 59.375 29.6875 61.71875 
Q 35.15625 61.71875 32.03125 57.03125 
Q 31.25 54.6875 28.90625 52.34375 
Q 34.375 51.5625 40.625 52.34375 
Q 42.1875 51.5625 42.1875 50 
Q 42.1875 48.4375 39.84375 47.65625 
Q 35.15625 46.875 24.21875 46.875 
Q 20.3125 43.75 14.0625 39.0625 
Q 9.375 36.71875 4.6875 39.0625 
Q 2.34375 40.625 4.6875 42.96875 
Q 8.59375 45.3125 12.5 47.65625 
Q 18.75 51.5625 24.21875 57.03125 
z
M 53.125 42.96875 
Q 51.5625 39.84375 53.125 35.15625 
Q 53.90625 32.8125 62.5 34.375 
L 62.5 44.53125 
Q 54.6875 44.53125 53.125 42.96875 
z
M 72.65625 35.15625 
Q 81.25 33.59375 82.8125 36.71875 
Q 84.375 41.40625 82.03125 43.75 
Q 78.125 44.53125 72.65625 44.53125 
z
" id="LiSu-949f"/>
     <path d="M 26.5625 62.5 
Q 31.25 62.5 31.25 58.59375 
Q 30.46875 53.125 23.4375 47.65625 
Q 26.5625 46.09375 33.59375 46.875 
Q 37.5 49.21875 39.84375 49.21875 
Q 43.75 48.4375 44.53125 43.75 
Q 44.53125 41.40625 43.75 38.28125 
Q 53.90625 44.53125 59.375 61.71875 
Q 61.71875 65.625 65.625 63.28125 
Q 66.40625 62.5 67.96875 60.15625 
Q 68.75 57.03125 64.0625 50.78125 
Q 67.96875 49.21875 80.46875 50 
Q 85.9375 50.78125 90.625 42.96875 
Q 91.40625 39.0625 89.84375 33.59375 
Q 87.5 17.96875 83.59375 11.71875 
Q 77.34375 0.78125 70.3125 1.5625 
Q 52.34375 3.125 48.4375 14.0625 
Q 49.21875 16.40625 52.34375 14.0625 
Q 58.59375 10.15625 64.84375 10.9375 
Q 71.09375 10.9375 75 17.1875 
Q 79.6875 25.78125 80.46875 34.375 
Q 81.25 39.84375 78.125 41.40625 
Q 72.65625 44.53125 63.28125 43.75 
Q 61.71875 43.75 60.9375 45.3125 
Q 53.125 35.9375 47.65625 35.15625 
Q 46.09375 35.15625 43.75 36.71875 
Q 42.1875 26.5625 42.1875 14.0625 
Q 41.40625 11.71875 39.84375 10.15625 
Q 37.5 7.8125 35.15625 8.59375 
Q 32.8125 10.9375 26.5625 11.71875 
Q 17.1875 11.71875 12.5 7.8125 
Q 7.8125 7.03125 7.8125 12.5 
Q 8.59375 34.375 4.6875 42.1875 
Q 4.6875 45.3125 6.25 47.65625 
Q 7.8125 49.21875 9.375 49.21875 
Q 13.28125 47.65625 18.75 47.65625 
Q 21.875 54.6875 21.875 60.15625 
Q 22.65625 63.28125 26.5625 62.5 
z
M 14.84375 32.8125 
Q 25 32.8125 33.59375 33.59375 
Q 35.15625 34.375 35.15625 39.0625 
Q 36.71875 42.96875 17.96875 41.40625 
Q 15.625 41.40625 14.84375 39.0625 
z
M 18.75 17.1875 
L 26.5625 17.1875 
Q 34.375 16.40625 34.375 21.09375 
L 34.375 27.34375 
Q 32.03125 28.125 30.46875 28.125 
Q 17.96875 28.125 14.84375 27.34375 
Q 15.625 16.40625 18.75 17.1875 
z
M 58.59375 35.9375 
Q 63.28125 37.5 64.84375 32.8125 
Q 66.40625 28.125 70.3125 24.21875 
Q 71.875 21.875 69.53125 21.875 
Q 64.0625 22.65625 57.03125 28.90625 
Q 53.90625 32.8125 58.59375 35.9375 
z
" id="LiSu-7684"/>
     <path d="M 32.03125 62.5 
Q 34.375 64.0625 35.9375 63.28125 
Q 39.0625 62.5 39.84375 60.15625 
Q 40.625 57.8125 38.28125 56.25 
L 53.90625 56.25 
Q 60.15625 56.25 67.1875 57.03125 
Q 71.09375 57.03125 75 57.03125 
Q 79.6875 56.25 79.6875 53.90625 
Q 77.34375 51.5625 61.71875 51.5625 
L 43.75 51.5625 
Q 37.5 50.78125 33.59375 50.78125 
Q 26.5625 44.53125 17.96875 40.625 
Q 14.0625 39.0625 9.375 38.28125 
Q 3.90625 37.5 3.125 41.40625 
Q 3.90625 42.96875 10.9375 45.3125 
Q 19.53125 48.4375 26.5625 55.46875 
Q 29.6875 58.59375 32.03125 62.5 
z
M 37.5 47.65625 
L 67.96875 47.65625 
Q 70.3125 45.3125 67.96875 43.75 
Q 65.625 42.96875 62.5 42.96875 
L 44.53125 42.96875 
Q 39.84375 42.1875 35.15625 41.40625 
Q 32.8125 41.40625 32.8125 43.75 
Q 33.59375 46.09375 37.5 47.65625 
z
M 33.59375 37.5 
Q 41.40625 38.28125 48.4375 39.0625 
Q 55.46875 39.0625 59.375 38.28125 
Q 62.5 39.0625 64.0625 39.84375 
Q 67.1875 39.84375 68.75 37.5 
Q 70.3125 35.15625 68.75 32.8125 
Q 65.625 28.90625 66.40625 24.21875 
Q 71.09375 10.15625 85.9375 13.28125 
Q 90.625 14.0625 96.875 16.40625 
Q 98.4375 14.0625 92.1875 6.25 
Q 88.28125 2.34375 83.59375 1.5625 
Q 77.34375 0.78125 67.1875 7.03125 
Q 60.15625 13.28125 58.59375 19.53125 
Q 57.8125 25 59.375 29.6875 
Q 60.15625 32.8125 57.8125 33.59375 
Q 53.125 34.375 46.875 34.375 
Q 38.28125 33.59375 31.25 32.03125 
Q 28.125 31.25 25 29.6875 
Q 22.65625 28.125 21.875 31.25 
Q 21.875 33.59375 23.4375 35.9375 
Q 25 37.5 27.34375 38.28125 
Q 28.90625 38.28125 33.59375 37.5 
z
" id="LiSu-6c14"/>
     <path d="M 47.65625 63.28125 
Q 53.125 62.5 53.90625 56.25 
Q 60.9375 56.25 82.03125 55.46875 
Q 89.84375 55.46875 86.71875 50.78125 
L 58.59375 50.78125 
Q 57.03125 42.96875 57.8125 35.9375 
Q 60.15625 35.9375 61.71875 35.9375 
Q 70.3125 35.15625 64.84375 25.78125 
Q 61.71875 22.65625 57.8125 20.3125 
Q 76.5625 13.28125 96.09375 12.5 
Q 89.0625 -1.5625 82.03125 1.5625 
Q 68.75 5.46875 51.5625 16.40625 
Q 39.84375 10.15625 28.125 6.25 
Q 12.5 2.34375 5.46875 9.375 
Q 3.125 12.5 8.59375 12.5 
Q 27.34375 12.5 44.53125 20.3125 
Q 40.625 22.65625 36.71875 23.4375 
Q 33.59375 23.4375 34.375 26.5625 
Q 35.9375 29.6875 39.0625 28.90625 
Q 42.96875 27.34375 50 23.4375 
Q 53.90625 25.78125 57.03125 28.90625 
Q 57.03125 31.25 50.78125 32.03125 
Q 40.625 32.03125 30.46875 29.6875 
Q 27.34375 28.125 27.34375 31.25 
Q 29.6875 38.28125 35.15625 36.71875 
L 37.5 36.71875 
Q 38.28125 43.75 37.5 50.78125 
Q 24.21875 51.5625 14.84375 48.4375 
Q 10.9375 47.65625 10.9375 51.5625 
Q 14.84375 58.59375 20.3125 57.8125 
Q 31.25 55.46875 41.40625 56.25 
Q 42.96875 63.28125 47.65625 63.28125 
z
M 50 50 
Q 46.875 51.5625 44.53125 50 
Q 43.75 43.75 44.53125 36.71875 
Q 47.65625 35.9375 50.78125 36.71875 
Q 52.34375 43.75 50 50 
z
M 64.0625 46.875 
Q 72.65625 42.96875 82.8125 35.9375 
Q 85.15625 28.90625 76.5625 33.59375 
Q 65.625 37.5 60.9375 41.40625 
Q 60.15625 45.3125 64.0625 46.875 
z
M 28.125 47.65625 
Q 33.59375 49.21875 34.375 44.53125 
Q 33.59375 42.1875 30.46875 39.84375 
Q 26.5625 37.5 21.875 35.9375 
Q 17.1875 34.375 13.28125 33.59375 
Q 9.375 34.375 10.9375 37.5 
Q 20.3125 42.1875 28.125 47.65625 
z
" id="LiSu-53d8"/>
     <path d="M 59.375 37.5 
Q 66.40625 40.625 73.4375 47.65625 
Q 75.78125 50.78125 78.90625 53.125 
Q 81.25 53.90625 82.8125 52.34375 
Q 86.71875 47.65625 78.90625 41.40625 
Q 68.75 32.8125 59.375 29.6875 
Q 59.375 22.65625 63.28125 19.53125 
Q 70.3125 14.0625 83.59375 14.84375 
Q 87.5 15.625 92.96875 17.96875 
Q 97.65625 20.3125 97.65625 17.1875 
Q 93.75 8.59375 89.0625 3.90625 
Q 85.15625 1.5625 82.03125 1.5625 
Q 71.09375 1.5625 61.71875 7.8125 
Q 52.34375 15.625 50.78125 25.78125 
Q 45.3125 25 39.0625 24.21875 
Q 34.375 25 37.5 26.5625 
Q 42.96875 28.90625 50 32.03125 
Q 50.78125 41.40625 50.78125 48.4375 
L 50.78125 57.03125 
Q 52.34375 60.9375 54.6875 61.71875 
Q 56.25 61.71875 57.8125 61.71875 
Q 60.9375 61.71875 62.5 57.03125 
Q 62.5 56.25 61.71875 54.6875 
Q 60.15625 47.65625 59.375 37.5 
z
M 39.0625 57.8125 
Q 37.5 53.90625 31.25 46.09375 
L 31.25 3.90625 
Q 29.6875 2.34375 27.34375 1.5625 
Q 21.09375 1.5625 21.09375 4.6875 
Q 21.875 9.375 21.875 17.1875 
Q 21.875 39.84375 21.09375 40.625 
Q 16.40625 37.5 12.5 35.9375 
Q 6.25 35.15625 2.34375 42.96875 
Q 1.5625 44.53125 3.125 45.3125 
Q 17.1875 48.4375 32.03125 58.59375 
Q 35.9375 61.71875 38.28125 61.71875 
Q 39.84375 60.15625 39.0625 57.8125 
z
" id="LiSu-5316"/>
     <path d="M 81.25 54.6875 
Q 82.8125 53.90625 82.8125 53.125 
Q 82.8125 51.5625 80.46875 50.78125 
Q 72.65625 51.5625 65.625 51.5625 
L 65.625 47.65625 
L 80.46875 46.875 
Q 81.25 45.3125 78.125 44.53125 
L 65.625 44.53125 
L 65.625 41.40625 
Q 81.25 40.625 96.875 39.84375 
Q 98.4375 38.28125 94.53125 34.375 
Q 90.625 31.25 88.28125 32.03125 
Q 77.34375 35.9375 62.5 36.71875 
Q 53.125 36.71875 44.53125 35.15625 
Q 37.5 33.59375 34.375 32.03125 
Q 32.03125 32.03125 32.8125 34.375 
Q 35.15625 39.0625 38.28125 40.625 
Q 39.84375 39.84375 43.75 39.84375 
Q 51.5625 40.625 57.03125 41.40625 
L 57.03125 44.53125 
Q 49.21875 43.75 44.53125 42.96875 
Q 42.1875 42.96875 42.96875 44.53125 
Q 43.75 46.09375 46.09375 47.65625 
Q 47.65625 47.65625 49.21875 46.875 
Q 51.5625 46.875 57.03125 47.65625 
L 57.03125 51.5625 
Q 46.875 50.78125 41.40625 49.21875 
Q 39.84375 49.21875 39.84375 50 
Q 39.84375 54.6875 43.75 55.46875 
Q 46.09375 55.46875 47.65625 54.6875 
Q 51.5625 54.6875 57.03125 55.46875 
L 57.03125 60.9375 
Q 57.03125 63.28125 60.15625 63.28125 
Q 62.5 63.28125 64.0625 61.71875 
Q 66.40625 60.15625 65.625 55.46875 
Q 73.4375 54.6875 81.25 54.6875 
z
M 34.375 53.90625 
Q 36.71875 52.34375 36.71875 49.21875 
Q 34.375 42.1875 30.46875 39.84375 
Q 29.6875 39.84375 29.6875 40.625 
Q 30.46875 46.09375 30.46875 50.78125 
Q 31.25 53.90625 34.375 53.90625 
z
M 21.09375 61.71875 
Q 27.34375 61.71875 26.5625 54.6875 
Q 25.78125 51.5625 25.78125 46.875 
L 25.78125 7.8125 
Q 25.78125 6.25 25 3.90625 
Q 21.875 1.5625 20.3125 2.34375 
Q 17.1875 3.90625 17.1875 6.25 
Q 17.96875 8.59375 17.96875 15.625 
L 17.96875 45.3125 
Q 17.1875 50 16.40625 54.6875 
Q 15.625 60.9375 21.09375 61.71875 
z
M 10.9375 50.78125 
Q 16.40625 49.21875 14.0625 41.40625 
Q 12.5 36.71875 10.9375 32.03125 
Q 7.8125 27.34375 6.25 26.5625 
Q 4.6875 26.5625 5.46875 28.90625 
Q 8.59375 39.0625 7.8125 48.4375 
Q 8.59375 50 10.15625 50.78125 
z
M 79.6875 25 
L 79.6875 16.40625 
Q 79.6875 8.59375 80.46875 5.46875 
Q 78.90625 2.34375 75.78125 1.5625 
Q 72.65625 1.5625 71.875 3.90625 
L 71.875 14.0625 
Q 60.9375 15.625 50 14.0625 
Q 46.875 4.6875 35.9375 3.90625 
Q 28.125 4.6875 28.125 7.8125 
Q 29.6875 8.59375 35.15625 10.9375 
Q 42.96875 15.625 43.75 22.65625 
L 43.75 32.03125 
Q 44.53125 33.59375 46.875 34.375 
Q 48.4375 33.59375 50.78125 32.8125 
Q 55.46875 33.59375 60.15625 33.59375 
Q 65.625 33.59375 68.75 32.8125 
Q 71.875 32.03125 75 33.59375 
Q 77.34375 33.59375 78.125 32.8125 
Q 79.6875 31.25 80.46875 28.90625 
Q 80.46875 26.5625 79.6875 25 
z
M 71.875 18.75 
Q 72.65625 21.09375 71.875 21.875 
Q 60.15625 23.4375 50 21.875 
Q 48.4375 20.3125 50 18.75 
Q 60.15625 17.96875 71.875 18.75 
z
M 50.78125 25.78125 
Q 60.15625 25 71.09375 26.5625 
Q 73.4375 28.90625 69.53125 29.6875 
Q 60.9375 30.46875 52.34375 29.6875 
Q 48.4375 28.125 50.78125 25.78125 
z
" id="LiSu-60c5"/>
     <path d="M 38.28125 61.71875 
Q 39.84375 62.5 41.40625 61.71875 
Q 42.96875 60.9375 45.3125 60.15625 
Q 53.90625 59.375 62.5 59.375 
Q 67.1875 59.375 69.53125 60.15625 
Q 72.65625 62.5 75 60.9375 
Q 81.25 57.03125 79.6875 54.6875 
Q 78.90625 50 78.90625 45.3125 
Q 78.90625 40.625 76.5625 35.9375 
Q 75 33.59375 71.09375 34.375 
Q 68.75 35.9375 64.84375 35.9375 
Q 62.5 21.09375 72.65625 15.625 
Q 80.46875 12.5 92.1875 15.625 
Q 96.875 18.75 97.65625 17.96875 
Q 94.53125 6.25 89.0625 3.125 
Q 85.15625 0 78.125 1.5625 
Q 66.40625 3.90625 60.9375 10.9375 
Q 57.03125 18.75 57.8125 36.71875 
L 52.34375 36.71875 
Q 50.78125 16.40625 43.75 11.71875 
Q 34.375 5.46875 21.875 5.46875 
Q 15.625 6.25 12.5 10.15625 
Q 10.15625 14.0625 13.28125 13.28125 
Q 17.1875 12.5 20.3125 12.5 
Q 32.03125 12.5 39.0625 18.75 
Q 45.3125 23.4375 46.875 35.9375 
Q 42.96875 35.15625 41.40625 34.375 
Q 38.28125 33.59375 37.5 35.9375 
Q 36.71875 45.3125 35.15625 56.25 
Q 34.375 60.15625 38.28125 61.71875 
z
M 16.40625 56.25 
Q 24.21875 51.5625 32.8125 48.4375 
Q 35.9375 46.875 32.8125 46.09375 
Q 28.125 44.53125 23.4375 44.53125 
Q 15.625 44.53125 9.375 46.875 
Q 6.25 48.4375 7.8125 53.125 
Q 10.9375 58.59375 16.40625 56.25 
z
M 5.46875 30.46875 
Q 14.84375 32.8125 33.59375 38.28125 
Q 36.71875 38.28125 33.59375 34.375 
Q 25 28.125 17.1875 22.65625 
Q 8.59375 17.96875 3.90625 21.875 
Q 0.78125 28.125 5.46875 30.46875 
z
M 45.3125 53.125 
L 45.3125 44.53125 
Q 45.3125 41.40625 67.1875 42.1875 
Q 69.53125 42.1875 69.53125 44.53125 
L 69.53125 51.5625 
Q 70.3125 53.90625 57.8125 54.6875 
Q 45.3125 54.6875 45.3125 53.125 
z
" id="LiSu-51b5"/>
    </defs>
    <g transform="translate(594 63.12)scale(0.192 -0.192)">
     <use xlink:href="#LiSu-31"/>
     <use x="50" xlink:href="#LiSu-30"/>
     <use x="100" xlink:href="#LiSu-70b9"/>
     <use x="200" xlink:href="#LiSu-5230"/>
     <use x="300" xlink:href="#LiSu-31"/>
     <use x="350" xlink:href="#LiSu-32"/>
     <use x="400" xlink:href="#LiSu-70b9"/>
     <use x="500" xlink:href="#LiSu-6bcf"/>
     <use x="600" xlink:href="#LiSu-5206"/>
     <use x="700" xlink:href="#LiSu-949f"/>
     <use x="800" xlink:href="#LiSu-7684"/>
     <use x="900" xlink:href="#LiSu-6c14"/>
     <use x="1000" xlink:href="#LiSu-6e29"/>
     <use x="1100" xlink:href="#LiSu-53d8"/>
     <use x="1200" xlink:href="#LiSu-5316"/>
     <use x="1300" xlink:href="#LiSu-60c5"/>
     <use x="1400" xlink:href="#LiSu-51b5"/>
    </g>
   </g>
  </g>
 </g>
 <defs>
  <clipPath id="p2bb382e6ec">
   <rect height="443.52" width="1116" x="180" y="69.12"/>
  </clipPath>
 </defs>
</svg>
